%TF.GenerationSoftware,KiCad,Pcbnew,8.0.3*%
%TF.CreationDate,2024-11-03T11:14:26-05:00*%
%TF.ProjectId,toy,746f792e-6b69-4636-9164-5f7063625858,rev?*%
%TF.SameCoordinates,Original*%
%TF.FileFunction,Legend,Top*%
%TF.FilePolarity,Positive*%
%FSLAX46Y46*%
G04 Gerber Fmt 4.6, Leading zero omitted, Abs format (unit mm)*
G04 Created by KiCad (PCBNEW 8.0.3) date 2024-11-03 11:14:26*
%MOMM*%
%LPD*%
G01*
G04 APERTURE LIST*
%ADD10C,0.600000*%
%ADD11C,0.150000*%
%ADD12C,0.120000*%
G04 APERTURE END LIST*
D10*
X68109021Y-103540732D02*
X68537593Y-103683589D01*
X68537593Y-103683589D02*
X68680450Y-103826446D01*
X68680450Y-103826446D02*
X68823307Y-104112161D01*
X68823307Y-104112161D02*
X68823307Y-104540732D01*
X68823307Y-104540732D02*
X68680450Y-104826446D01*
X68680450Y-104826446D02*
X68537593Y-104969304D01*
X68537593Y-104969304D02*
X68251878Y-105112161D01*
X68251878Y-105112161D02*
X67109021Y-105112161D01*
X67109021Y-105112161D02*
X67109021Y-102112161D01*
X67109021Y-102112161D02*
X68109021Y-102112161D01*
X68109021Y-102112161D02*
X68394736Y-102255018D01*
X68394736Y-102255018D02*
X68537593Y-102397875D01*
X68537593Y-102397875D02*
X68680450Y-102683589D01*
X68680450Y-102683589D02*
X68680450Y-102969304D01*
X68680450Y-102969304D02*
X68537593Y-103255018D01*
X68537593Y-103255018D02*
X68394736Y-103397875D01*
X68394736Y-103397875D02*
X68109021Y-103540732D01*
X68109021Y-103540732D02*
X67109021Y-103540732D01*
X71537593Y-105112161D02*
X70109021Y-105112161D01*
X70109021Y-105112161D02*
X70109021Y-102112161D01*
X72537592Y-105112161D02*
X72537592Y-102112161D01*
X75680449Y-104826446D02*
X75537592Y-104969304D01*
X75537592Y-104969304D02*
X75109020Y-105112161D01*
X75109020Y-105112161D02*
X74823306Y-105112161D01*
X74823306Y-105112161D02*
X74394735Y-104969304D01*
X74394735Y-104969304D02*
X74109020Y-104683589D01*
X74109020Y-104683589D02*
X73966163Y-104397875D01*
X73966163Y-104397875D02*
X73823306Y-103826446D01*
X73823306Y-103826446D02*
X73823306Y-103397875D01*
X73823306Y-103397875D02*
X73966163Y-102826446D01*
X73966163Y-102826446D02*
X74109020Y-102540732D01*
X74109020Y-102540732D02*
X74394735Y-102255018D01*
X74394735Y-102255018D02*
X74823306Y-102112161D01*
X74823306Y-102112161D02*
X75109020Y-102112161D01*
X75109020Y-102112161D02*
X75537592Y-102255018D01*
X75537592Y-102255018D02*
X75680449Y-102397875D01*
X76966163Y-105112161D02*
X76966163Y-102112161D01*
X78680449Y-105112161D02*
X77394735Y-103397875D01*
X78680449Y-102112161D02*
X76966163Y-103826446D01*
X79966163Y-103540732D02*
X80966163Y-103540732D01*
X81394735Y-105112161D02*
X79966163Y-105112161D01*
X79966163Y-105112161D02*
X79966163Y-102112161D01*
X79966163Y-102112161D02*
X81394735Y-102112161D01*
X82251878Y-102112161D02*
X83966164Y-102112161D01*
X83109021Y-105112161D02*
X83109021Y-102112161D01*
X86823306Y-102112161D02*
X87823306Y-105112161D01*
X87823306Y-105112161D02*
X88823306Y-102112161D01*
X91394735Y-105112161D02*
X89680449Y-105112161D01*
X90537592Y-105112161D02*
X90537592Y-102112161D01*
X90537592Y-102112161D02*
X90251878Y-102540732D01*
X90251878Y-102540732D02*
X89966163Y-102826446D01*
X89966163Y-102826446D02*
X89680449Y-102969304D01*
X94823306Y-102397875D02*
X94966163Y-102255018D01*
X94966163Y-102255018D02*
X95251878Y-102112161D01*
X95251878Y-102112161D02*
X95966163Y-102112161D01*
X95966163Y-102112161D02*
X96251878Y-102255018D01*
X96251878Y-102255018D02*
X96394735Y-102397875D01*
X96394735Y-102397875D02*
X96537592Y-102683589D01*
X96537592Y-102683589D02*
X96537592Y-102969304D01*
X96537592Y-102969304D02*
X96394735Y-103397875D01*
X96394735Y-103397875D02*
X94680449Y-105112161D01*
X94680449Y-105112161D02*
X96537592Y-105112161D01*
X98394735Y-102112161D02*
X98680449Y-102112161D01*
X98680449Y-102112161D02*
X98966163Y-102255018D01*
X98966163Y-102255018D02*
X99109021Y-102397875D01*
X99109021Y-102397875D02*
X99251878Y-102683589D01*
X99251878Y-102683589D02*
X99394735Y-103255018D01*
X99394735Y-103255018D02*
X99394735Y-103969304D01*
X99394735Y-103969304D02*
X99251878Y-104540732D01*
X99251878Y-104540732D02*
X99109021Y-104826446D01*
X99109021Y-104826446D02*
X98966163Y-104969304D01*
X98966163Y-104969304D02*
X98680449Y-105112161D01*
X98680449Y-105112161D02*
X98394735Y-105112161D01*
X98394735Y-105112161D02*
X98109021Y-104969304D01*
X98109021Y-104969304D02*
X97966163Y-104826446D01*
X97966163Y-104826446D02*
X97823306Y-104540732D01*
X97823306Y-104540732D02*
X97680449Y-103969304D01*
X97680449Y-103969304D02*
X97680449Y-103255018D01*
X97680449Y-103255018D02*
X97823306Y-102683589D01*
X97823306Y-102683589D02*
X97966163Y-102397875D01*
X97966163Y-102397875D02*
X98109021Y-102255018D01*
X98109021Y-102255018D02*
X98394735Y-102112161D01*
X100537592Y-102397875D02*
X100680449Y-102255018D01*
X100680449Y-102255018D02*
X100966164Y-102112161D01*
X100966164Y-102112161D02*
X101680449Y-102112161D01*
X101680449Y-102112161D02*
X101966164Y-102255018D01*
X101966164Y-102255018D02*
X102109021Y-102397875D01*
X102109021Y-102397875D02*
X102251878Y-102683589D01*
X102251878Y-102683589D02*
X102251878Y-102969304D01*
X102251878Y-102969304D02*
X102109021Y-103397875D01*
X102109021Y-103397875D02*
X100394735Y-105112161D01*
X100394735Y-105112161D02*
X102251878Y-105112161D01*
X104823307Y-103112161D02*
X104823307Y-105112161D01*
X104109021Y-101969304D02*
X103394735Y-104112161D01*
X103394735Y-104112161D02*
X105251878Y-104112161D01*
X68109021Y-108370564D02*
X68537593Y-108513421D01*
X68537593Y-108513421D02*
X68680450Y-108656278D01*
X68680450Y-108656278D02*
X68823307Y-108941993D01*
X68823307Y-108941993D02*
X68823307Y-109370564D01*
X68823307Y-109370564D02*
X68680450Y-109656278D01*
X68680450Y-109656278D02*
X68537593Y-109799136D01*
X68537593Y-109799136D02*
X68251878Y-109941993D01*
X68251878Y-109941993D02*
X67109021Y-109941993D01*
X67109021Y-109941993D02*
X67109021Y-106941993D01*
X67109021Y-106941993D02*
X68109021Y-106941993D01*
X68109021Y-106941993D02*
X68394736Y-107084850D01*
X68394736Y-107084850D02*
X68537593Y-107227707D01*
X68537593Y-107227707D02*
X68680450Y-107513421D01*
X68680450Y-107513421D02*
X68680450Y-107799136D01*
X68680450Y-107799136D02*
X68537593Y-108084850D01*
X68537593Y-108084850D02*
X68394736Y-108227707D01*
X68394736Y-108227707D02*
X68109021Y-108370564D01*
X68109021Y-108370564D02*
X67109021Y-108370564D01*
X71823307Y-109941993D02*
X70823307Y-108513421D01*
X70109021Y-109941993D02*
X70109021Y-106941993D01*
X70109021Y-106941993D02*
X71251878Y-106941993D01*
X71251878Y-106941993D02*
X71537593Y-107084850D01*
X71537593Y-107084850D02*
X71680450Y-107227707D01*
X71680450Y-107227707D02*
X71823307Y-107513421D01*
X71823307Y-107513421D02*
X71823307Y-107941993D01*
X71823307Y-107941993D02*
X71680450Y-108227707D01*
X71680450Y-108227707D02*
X71537593Y-108370564D01*
X71537593Y-108370564D02*
X71251878Y-108513421D01*
X71251878Y-108513421D02*
X70109021Y-108513421D01*
X73680450Y-106941993D02*
X74251878Y-106941993D01*
X74251878Y-106941993D02*
X74537593Y-107084850D01*
X74537593Y-107084850D02*
X74823307Y-107370564D01*
X74823307Y-107370564D02*
X74966164Y-107941993D01*
X74966164Y-107941993D02*
X74966164Y-108941993D01*
X74966164Y-108941993D02*
X74823307Y-109513421D01*
X74823307Y-109513421D02*
X74537593Y-109799136D01*
X74537593Y-109799136D02*
X74251878Y-109941993D01*
X74251878Y-109941993D02*
X73680450Y-109941993D01*
X73680450Y-109941993D02*
X73394736Y-109799136D01*
X73394736Y-109799136D02*
X73109021Y-109513421D01*
X73109021Y-109513421D02*
X72966164Y-108941993D01*
X72966164Y-108941993D02*
X72966164Y-107941993D01*
X72966164Y-107941993D02*
X73109021Y-107370564D01*
X73109021Y-107370564D02*
X73394736Y-107084850D01*
X73394736Y-107084850D02*
X73680450Y-106941993D01*
X75966164Y-106941993D02*
X76680450Y-109941993D01*
X76680450Y-109941993D02*
X77251878Y-107799136D01*
X77251878Y-107799136D02*
X77823307Y-109941993D01*
X77823307Y-109941993D02*
X78537593Y-106941993D01*
X79680449Y-109941993D02*
X79680449Y-106941993D01*
X79680449Y-106941993D02*
X81394735Y-109941993D01*
X81394735Y-109941993D02*
X81394735Y-106941993D01*
X85109020Y-106941993D02*
X85109020Y-109370564D01*
X85109020Y-109370564D02*
X85251877Y-109656278D01*
X85251877Y-109656278D02*
X85394735Y-109799136D01*
X85394735Y-109799136D02*
X85680449Y-109941993D01*
X85680449Y-109941993D02*
X86251877Y-109941993D01*
X86251877Y-109941993D02*
X86537592Y-109799136D01*
X86537592Y-109799136D02*
X86680449Y-109656278D01*
X86680449Y-109656278D02*
X86823306Y-109370564D01*
X86823306Y-109370564D02*
X86823306Y-106941993D01*
X88251877Y-109941993D02*
X88251877Y-106941993D01*
X88251877Y-106941993D02*
X89966163Y-109941993D01*
X89966163Y-109941993D02*
X89966163Y-106941993D01*
X91394734Y-109941993D02*
X91394734Y-106941993D01*
X92394734Y-106941993D02*
X93394734Y-109941993D01*
X93394734Y-109941993D02*
X94394734Y-106941993D01*
X95394734Y-108370564D02*
X96394734Y-108370564D01*
X96823306Y-109941993D02*
X95394734Y-109941993D01*
X95394734Y-109941993D02*
X95394734Y-106941993D01*
X95394734Y-106941993D02*
X96823306Y-106941993D01*
X99823306Y-109941993D02*
X98823306Y-108513421D01*
X98109020Y-109941993D02*
X98109020Y-106941993D01*
X98109020Y-106941993D02*
X99251877Y-106941993D01*
X99251877Y-106941993D02*
X99537592Y-107084850D01*
X99537592Y-107084850D02*
X99680449Y-107227707D01*
X99680449Y-107227707D02*
X99823306Y-107513421D01*
X99823306Y-107513421D02*
X99823306Y-107941993D01*
X99823306Y-107941993D02*
X99680449Y-108227707D01*
X99680449Y-108227707D02*
X99537592Y-108370564D01*
X99537592Y-108370564D02*
X99251877Y-108513421D01*
X99251877Y-108513421D02*
X98109020Y-108513421D01*
X100966163Y-109799136D02*
X101394735Y-109941993D01*
X101394735Y-109941993D02*
X102109020Y-109941993D01*
X102109020Y-109941993D02*
X102394735Y-109799136D01*
X102394735Y-109799136D02*
X102537592Y-109656278D01*
X102537592Y-109656278D02*
X102680449Y-109370564D01*
X102680449Y-109370564D02*
X102680449Y-109084850D01*
X102680449Y-109084850D02*
X102537592Y-108799136D01*
X102537592Y-108799136D02*
X102394735Y-108656278D01*
X102394735Y-108656278D02*
X102109020Y-108513421D01*
X102109020Y-108513421D02*
X101537592Y-108370564D01*
X101537592Y-108370564D02*
X101251877Y-108227707D01*
X101251877Y-108227707D02*
X101109020Y-108084850D01*
X101109020Y-108084850D02*
X100966163Y-107799136D01*
X100966163Y-107799136D02*
X100966163Y-107513421D01*
X100966163Y-107513421D02*
X101109020Y-107227707D01*
X101109020Y-107227707D02*
X101251877Y-107084850D01*
X101251877Y-107084850D02*
X101537592Y-106941993D01*
X101537592Y-106941993D02*
X102251877Y-106941993D01*
X102251877Y-106941993D02*
X102680449Y-107084850D01*
X103966163Y-109941993D02*
X103966163Y-106941993D01*
X104966163Y-106941993D02*
X106680449Y-106941993D01*
X105823306Y-109941993D02*
X105823306Y-106941993D01*
X108251877Y-108513421D02*
X108251877Y-109941993D01*
X107251877Y-106941993D02*
X108251877Y-108513421D01*
X108251877Y-108513421D02*
X109251877Y-106941993D01*
X67109021Y-114771825D02*
X67109021Y-111771825D01*
X67109021Y-111771825D02*
X68109021Y-113914682D01*
X68109021Y-113914682D02*
X69109021Y-111771825D01*
X69109021Y-111771825D02*
X69109021Y-114771825D01*
X71109021Y-111771825D02*
X71680449Y-111771825D01*
X71680449Y-111771825D02*
X71966164Y-111914682D01*
X71966164Y-111914682D02*
X72251878Y-112200396D01*
X72251878Y-112200396D02*
X72394735Y-112771825D01*
X72394735Y-112771825D02*
X72394735Y-113771825D01*
X72394735Y-113771825D02*
X72251878Y-114343253D01*
X72251878Y-114343253D02*
X71966164Y-114628968D01*
X71966164Y-114628968D02*
X71680449Y-114771825D01*
X71680449Y-114771825D02*
X71109021Y-114771825D01*
X71109021Y-114771825D02*
X70823307Y-114628968D01*
X70823307Y-114628968D02*
X70537592Y-114343253D01*
X70537592Y-114343253D02*
X70394735Y-113771825D01*
X70394735Y-113771825D02*
X70394735Y-112771825D01*
X70394735Y-112771825D02*
X70537592Y-112200396D01*
X70537592Y-112200396D02*
X70823307Y-111914682D01*
X70823307Y-111914682D02*
X71109021Y-111771825D01*
X73680449Y-114771825D02*
X73680449Y-111771825D01*
X73680449Y-113200396D02*
X75394735Y-113200396D01*
X75394735Y-114771825D02*
X75394735Y-111771825D01*
X76680449Y-113914682D02*
X78109021Y-113914682D01*
X76394735Y-114771825D02*
X77394735Y-111771825D01*
X77394735Y-111771825D02*
X78394735Y-114771825D01*
X79394735Y-114771825D02*
X79394735Y-111771825D01*
X79394735Y-111771825D02*
X80394735Y-113914682D01*
X80394735Y-113914682D02*
X81394735Y-111771825D01*
X81394735Y-111771825D02*
X81394735Y-114771825D01*
X82823306Y-113200396D02*
X83823306Y-113200396D01*
X84251878Y-114771825D02*
X82823306Y-114771825D01*
X82823306Y-114771825D02*
X82823306Y-111771825D01*
X82823306Y-111771825D02*
X84251878Y-111771825D01*
X85537592Y-114771825D02*
X85537592Y-111771825D01*
X85537592Y-111771825D02*
X86251878Y-111771825D01*
X86251878Y-111771825D02*
X86680449Y-111914682D01*
X86680449Y-111914682D02*
X86966164Y-112200396D01*
X86966164Y-112200396D02*
X87109021Y-112486110D01*
X87109021Y-112486110D02*
X87251878Y-113057539D01*
X87251878Y-113057539D02*
X87251878Y-113486110D01*
X87251878Y-113486110D02*
X87109021Y-114057539D01*
X87109021Y-114057539D02*
X86966164Y-114343253D01*
X86966164Y-114343253D02*
X86680449Y-114628968D01*
X86680449Y-114628968D02*
X86251878Y-114771825D01*
X86251878Y-114771825D02*
X85537592Y-114771825D01*
X93251878Y-114771825D02*
X93109021Y-114771825D01*
X93109021Y-114771825D02*
X92823306Y-114628968D01*
X92823306Y-114628968D02*
X92394735Y-114200396D01*
X92394735Y-114200396D02*
X91680449Y-113343253D01*
X91680449Y-113343253D02*
X91394735Y-112914682D01*
X91394735Y-112914682D02*
X91251878Y-112486110D01*
X91251878Y-112486110D02*
X91251878Y-112200396D01*
X91251878Y-112200396D02*
X91394735Y-111914682D01*
X91394735Y-111914682D02*
X91680449Y-111771825D01*
X91680449Y-111771825D02*
X91823306Y-111771825D01*
X91823306Y-111771825D02*
X92109021Y-111914682D01*
X92109021Y-111914682D02*
X92251878Y-112200396D01*
X92251878Y-112200396D02*
X92251878Y-112343253D01*
X92251878Y-112343253D02*
X92109021Y-112628968D01*
X92109021Y-112628968D02*
X91966163Y-112771825D01*
X91966163Y-112771825D02*
X91109021Y-113343253D01*
X91109021Y-113343253D02*
X90966163Y-113486110D01*
X90966163Y-113486110D02*
X90823306Y-113771825D01*
X90823306Y-113771825D02*
X90823306Y-114200396D01*
X90823306Y-114200396D02*
X90966163Y-114486110D01*
X90966163Y-114486110D02*
X91109021Y-114628968D01*
X91109021Y-114628968D02*
X91394735Y-114771825D01*
X91394735Y-114771825D02*
X91823306Y-114771825D01*
X91823306Y-114771825D02*
X92109021Y-114628968D01*
X92109021Y-114628968D02*
X92251878Y-114486110D01*
X92251878Y-114486110D02*
X92680449Y-113914682D01*
X92680449Y-113914682D02*
X92823306Y-113486110D01*
X92823306Y-113486110D02*
X92823306Y-113200396D01*
X98537592Y-114771825D02*
X97537592Y-113343253D01*
X96823306Y-114771825D02*
X96823306Y-111771825D01*
X96823306Y-111771825D02*
X97966163Y-111771825D01*
X97966163Y-111771825D02*
X98251878Y-111914682D01*
X98251878Y-111914682D02*
X98394735Y-112057539D01*
X98394735Y-112057539D02*
X98537592Y-112343253D01*
X98537592Y-112343253D02*
X98537592Y-112771825D01*
X98537592Y-112771825D02*
X98394735Y-113057539D01*
X98394735Y-113057539D02*
X98251878Y-113200396D01*
X98251878Y-113200396D02*
X97966163Y-113343253D01*
X97966163Y-113343253D02*
X96823306Y-113343253D01*
X100394735Y-111771825D02*
X100966163Y-111771825D01*
X100966163Y-111771825D02*
X101251878Y-111914682D01*
X101251878Y-111914682D02*
X101537592Y-112200396D01*
X101537592Y-112200396D02*
X101680449Y-112771825D01*
X101680449Y-112771825D02*
X101680449Y-113771825D01*
X101680449Y-113771825D02*
X101537592Y-114343253D01*
X101537592Y-114343253D02*
X101251878Y-114628968D01*
X101251878Y-114628968D02*
X100966163Y-114771825D01*
X100966163Y-114771825D02*
X100394735Y-114771825D01*
X100394735Y-114771825D02*
X100109021Y-114628968D01*
X100109021Y-114628968D02*
X99823306Y-114343253D01*
X99823306Y-114343253D02*
X99680449Y-113771825D01*
X99680449Y-113771825D02*
X99680449Y-112771825D01*
X99680449Y-112771825D02*
X99823306Y-112200396D01*
X99823306Y-112200396D02*
X100109021Y-111914682D01*
X100109021Y-111914682D02*
X100394735Y-111771825D01*
X102823306Y-114628968D02*
X103251878Y-114771825D01*
X103251878Y-114771825D02*
X103966163Y-114771825D01*
X103966163Y-114771825D02*
X104251878Y-114628968D01*
X104251878Y-114628968D02*
X104394735Y-114486110D01*
X104394735Y-114486110D02*
X104537592Y-114200396D01*
X104537592Y-114200396D02*
X104537592Y-113914682D01*
X104537592Y-113914682D02*
X104394735Y-113628968D01*
X104394735Y-113628968D02*
X104251878Y-113486110D01*
X104251878Y-113486110D02*
X103966163Y-113343253D01*
X103966163Y-113343253D02*
X103394735Y-113200396D01*
X103394735Y-113200396D02*
X103109020Y-113057539D01*
X103109020Y-113057539D02*
X102966163Y-112914682D01*
X102966163Y-112914682D02*
X102823306Y-112628968D01*
X102823306Y-112628968D02*
X102823306Y-112343253D01*
X102823306Y-112343253D02*
X102966163Y-112057539D01*
X102966163Y-112057539D02*
X103109020Y-111914682D01*
X103109020Y-111914682D02*
X103394735Y-111771825D01*
X103394735Y-111771825D02*
X104109020Y-111771825D01*
X104109020Y-111771825D02*
X104537592Y-111914682D01*
X105823306Y-113200396D02*
X106823306Y-113200396D01*
X107251878Y-114771825D02*
X105823306Y-114771825D01*
X105823306Y-114771825D02*
X105823306Y-111771825D01*
X105823306Y-111771825D02*
X107251878Y-111771825D01*
X108537592Y-114771825D02*
X108537592Y-111771825D01*
X108537592Y-111771825D02*
X110251878Y-114771825D01*
X110251878Y-114771825D02*
X110251878Y-111771825D01*
X111537592Y-114628968D02*
X111966164Y-114771825D01*
X111966164Y-114771825D02*
X112680449Y-114771825D01*
X112680449Y-114771825D02*
X112966164Y-114628968D01*
X112966164Y-114628968D02*
X113109021Y-114486110D01*
X113109021Y-114486110D02*
X113251878Y-114200396D01*
X113251878Y-114200396D02*
X113251878Y-113914682D01*
X113251878Y-113914682D02*
X113109021Y-113628968D01*
X113109021Y-113628968D02*
X112966164Y-113486110D01*
X112966164Y-113486110D02*
X112680449Y-113343253D01*
X112680449Y-113343253D02*
X112109021Y-113200396D01*
X112109021Y-113200396D02*
X111823306Y-113057539D01*
X111823306Y-113057539D02*
X111680449Y-112914682D01*
X111680449Y-112914682D02*
X111537592Y-112628968D01*
X111537592Y-112628968D02*
X111537592Y-112343253D01*
X111537592Y-112343253D02*
X111680449Y-112057539D01*
X111680449Y-112057539D02*
X111823306Y-111914682D01*
X111823306Y-111914682D02*
X112109021Y-111771825D01*
X112109021Y-111771825D02*
X112823306Y-111771825D01*
X112823306Y-111771825D02*
X113251878Y-111914682D01*
X114109021Y-111771825D02*
X115823307Y-111771825D01*
X114966164Y-114771825D02*
X114966164Y-111771825D01*
X116823306Y-113200396D02*
X117823306Y-113200396D01*
X118251878Y-114771825D02*
X116823306Y-114771825D01*
X116823306Y-114771825D02*
X116823306Y-111771825D01*
X116823306Y-111771825D02*
X118251878Y-111771825D01*
X119537592Y-114771825D02*
X119537592Y-111771825D01*
X120966163Y-114771825D02*
X120966163Y-111771825D01*
X120966163Y-111771825D02*
X122680449Y-114771825D01*
X122680449Y-114771825D02*
X122680449Y-111771825D01*
X68823307Y-119601657D02*
X67823307Y-118173085D01*
X67109021Y-119601657D02*
X67109021Y-116601657D01*
X67109021Y-116601657D02*
X68251878Y-116601657D01*
X68251878Y-116601657D02*
X68537593Y-116744514D01*
X68537593Y-116744514D02*
X68680450Y-116887371D01*
X68680450Y-116887371D02*
X68823307Y-117173085D01*
X68823307Y-117173085D02*
X68823307Y-117601657D01*
X68823307Y-117601657D02*
X68680450Y-117887371D01*
X68680450Y-117887371D02*
X68537593Y-118030228D01*
X68537593Y-118030228D02*
X68251878Y-118173085D01*
X68251878Y-118173085D02*
X67109021Y-118173085D01*
X70680450Y-116601657D02*
X71251878Y-116601657D01*
X71251878Y-116601657D02*
X71537593Y-116744514D01*
X71537593Y-116744514D02*
X71823307Y-117030228D01*
X71823307Y-117030228D02*
X71966164Y-117601657D01*
X71966164Y-117601657D02*
X71966164Y-118601657D01*
X71966164Y-118601657D02*
X71823307Y-119173085D01*
X71823307Y-119173085D02*
X71537593Y-119458800D01*
X71537593Y-119458800D02*
X71251878Y-119601657D01*
X71251878Y-119601657D02*
X70680450Y-119601657D01*
X70680450Y-119601657D02*
X70394736Y-119458800D01*
X70394736Y-119458800D02*
X70109021Y-119173085D01*
X70109021Y-119173085D02*
X69966164Y-118601657D01*
X69966164Y-118601657D02*
X69966164Y-117601657D01*
X69966164Y-117601657D02*
X70109021Y-117030228D01*
X70109021Y-117030228D02*
X70394736Y-116744514D01*
X70394736Y-116744514D02*
X70680450Y-116601657D01*
X73109021Y-119458800D02*
X73537593Y-119601657D01*
X73537593Y-119601657D02*
X74251878Y-119601657D01*
X74251878Y-119601657D02*
X74537593Y-119458800D01*
X74537593Y-119458800D02*
X74680450Y-119315942D01*
X74680450Y-119315942D02*
X74823307Y-119030228D01*
X74823307Y-119030228D02*
X74823307Y-118744514D01*
X74823307Y-118744514D02*
X74680450Y-118458800D01*
X74680450Y-118458800D02*
X74537593Y-118315942D01*
X74537593Y-118315942D02*
X74251878Y-118173085D01*
X74251878Y-118173085D02*
X73680450Y-118030228D01*
X73680450Y-118030228D02*
X73394735Y-117887371D01*
X73394735Y-117887371D02*
X73251878Y-117744514D01*
X73251878Y-117744514D02*
X73109021Y-117458800D01*
X73109021Y-117458800D02*
X73109021Y-117173085D01*
X73109021Y-117173085D02*
X73251878Y-116887371D01*
X73251878Y-116887371D02*
X73394735Y-116744514D01*
X73394735Y-116744514D02*
X73680450Y-116601657D01*
X73680450Y-116601657D02*
X74394735Y-116601657D01*
X74394735Y-116601657D02*
X74823307Y-116744514D01*
X76109021Y-118030228D02*
X77109021Y-118030228D01*
X77537593Y-119601657D02*
X76109021Y-119601657D01*
X76109021Y-119601657D02*
X76109021Y-116601657D01*
X76109021Y-116601657D02*
X77537593Y-116601657D01*
X78823307Y-119601657D02*
X78823307Y-116601657D01*
X78823307Y-116601657D02*
X80537593Y-119601657D01*
X80537593Y-119601657D02*
X80537593Y-116601657D01*
X81823307Y-119458800D02*
X82251879Y-119601657D01*
X82251879Y-119601657D02*
X82966164Y-119601657D01*
X82966164Y-119601657D02*
X83251879Y-119458800D01*
X83251879Y-119458800D02*
X83394736Y-119315942D01*
X83394736Y-119315942D02*
X83537593Y-119030228D01*
X83537593Y-119030228D02*
X83537593Y-118744514D01*
X83537593Y-118744514D02*
X83394736Y-118458800D01*
X83394736Y-118458800D02*
X83251879Y-118315942D01*
X83251879Y-118315942D02*
X82966164Y-118173085D01*
X82966164Y-118173085D02*
X82394736Y-118030228D01*
X82394736Y-118030228D02*
X82109021Y-117887371D01*
X82109021Y-117887371D02*
X81966164Y-117744514D01*
X81966164Y-117744514D02*
X81823307Y-117458800D01*
X81823307Y-117458800D02*
X81823307Y-117173085D01*
X81823307Y-117173085D02*
X81966164Y-116887371D01*
X81966164Y-116887371D02*
X82109021Y-116744514D01*
X82109021Y-116744514D02*
X82394736Y-116601657D01*
X82394736Y-116601657D02*
X83109021Y-116601657D01*
X83109021Y-116601657D02*
X83537593Y-116744514D01*
X84394736Y-116601657D02*
X86109022Y-116601657D01*
X85251879Y-119601657D02*
X85251879Y-116601657D01*
X87109021Y-118030228D02*
X88109021Y-118030228D01*
X88537593Y-119601657D02*
X87109021Y-119601657D01*
X87109021Y-119601657D02*
X87109021Y-116601657D01*
X87109021Y-116601657D02*
X88537593Y-116601657D01*
X89823307Y-119601657D02*
X89823307Y-116601657D01*
X91251878Y-119601657D02*
X91251878Y-116601657D01*
X91251878Y-116601657D02*
X92966164Y-119601657D01*
X92966164Y-119601657D02*
X92966164Y-116601657D01*
X94394735Y-119315942D02*
X94537592Y-119458800D01*
X94537592Y-119458800D02*
X94394735Y-119601657D01*
X94394735Y-119601657D02*
X94251878Y-119458800D01*
X94251878Y-119458800D02*
X94394735Y-119315942D01*
X94394735Y-119315942D02*
X94394735Y-119601657D01*
X95823306Y-118030228D02*
X96823306Y-118030228D01*
X97251878Y-119601657D02*
X95823306Y-119601657D01*
X95823306Y-119601657D02*
X95823306Y-116601657D01*
X95823306Y-116601657D02*
X97251878Y-116601657D01*
X98537592Y-119601657D02*
X98537592Y-116601657D01*
X98537592Y-116601657D02*
X100251878Y-119601657D01*
X100251878Y-119601657D02*
X100251878Y-116601657D01*
X103251878Y-116744514D02*
X102966164Y-116601657D01*
X102966164Y-116601657D02*
X102537592Y-116601657D01*
X102537592Y-116601657D02*
X102109021Y-116744514D01*
X102109021Y-116744514D02*
X101823306Y-117030228D01*
X101823306Y-117030228D02*
X101680449Y-117315942D01*
X101680449Y-117315942D02*
X101537592Y-117887371D01*
X101537592Y-117887371D02*
X101537592Y-118315942D01*
X101537592Y-118315942D02*
X101680449Y-118887371D01*
X101680449Y-118887371D02*
X101823306Y-119173085D01*
X101823306Y-119173085D02*
X102109021Y-119458800D01*
X102109021Y-119458800D02*
X102537592Y-119601657D01*
X102537592Y-119601657D02*
X102823306Y-119601657D01*
X102823306Y-119601657D02*
X103251878Y-119458800D01*
X103251878Y-119458800D02*
X103394735Y-119315942D01*
X103394735Y-119315942D02*
X103394735Y-118315942D01*
X103394735Y-118315942D02*
X102823306Y-118315942D01*
X104680449Y-119601657D02*
X104680449Y-116601657D01*
X106109020Y-119601657D02*
X106109020Y-116601657D01*
X106109020Y-116601657D02*
X107823306Y-119601657D01*
X107823306Y-119601657D02*
X107823306Y-116601657D01*
X109251877Y-119315942D02*
X109394734Y-119458800D01*
X109394734Y-119458800D02*
X109251877Y-119601657D01*
X109251877Y-119601657D02*
X109109020Y-119458800D01*
X109109020Y-119458800D02*
X109251877Y-119315942D01*
X109251877Y-119315942D02*
X109251877Y-119601657D01*
X111680448Y-118030228D02*
X112109020Y-118173085D01*
X112109020Y-118173085D02*
X112251877Y-118315942D01*
X112251877Y-118315942D02*
X112394734Y-118601657D01*
X112394734Y-118601657D02*
X112394734Y-119030228D01*
X112394734Y-119030228D02*
X112251877Y-119315942D01*
X112251877Y-119315942D02*
X112109020Y-119458800D01*
X112109020Y-119458800D02*
X111823305Y-119601657D01*
X111823305Y-119601657D02*
X110680448Y-119601657D01*
X110680448Y-119601657D02*
X110680448Y-116601657D01*
X110680448Y-116601657D02*
X111680448Y-116601657D01*
X111680448Y-116601657D02*
X111966163Y-116744514D01*
X111966163Y-116744514D02*
X112109020Y-116887371D01*
X112109020Y-116887371D02*
X112251877Y-117173085D01*
X112251877Y-117173085D02*
X112251877Y-117458800D01*
X112251877Y-117458800D02*
X112109020Y-117744514D01*
X112109020Y-117744514D02*
X111966163Y-117887371D01*
X111966163Y-117887371D02*
X111680448Y-118030228D01*
X111680448Y-118030228D02*
X110680448Y-118030228D01*
X115394734Y-119601657D02*
X114394734Y-118173085D01*
X113680448Y-119601657D02*
X113680448Y-116601657D01*
X113680448Y-116601657D02*
X114823305Y-116601657D01*
X114823305Y-116601657D02*
X115109020Y-116744514D01*
X115109020Y-116744514D02*
X115251877Y-116887371D01*
X115251877Y-116887371D02*
X115394734Y-117173085D01*
X115394734Y-117173085D02*
X115394734Y-117601657D01*
X115394734Y-117601657D02*
X115251877Y-117887371D01*
X115251877Y-117887371D02*
X115109020Y-118030228D01*
X115109020Y-118030228D02*
X114823305Y-118173085D01*
X114823305Y-118173085D02*
X113680448Y-118173085D01*
X117251877Y-116601657D02*
X117823305Y-116601657D01*
X117823305Y-116601657D02*
X118109020Y-116744514D01*
X118109020Y-116744514D02*
X118394734Y-117030228D01*
X118394734Y-117030228D02*
X118537591Y-117601657D01*
X118537591Y-117601657D02*
X118537591Y-118601657D01*
X118537591Y-118601657D02*
X118394734Y-119173085D01*
X118394734Y-119173085D02*
X118109020Y-119458800D01*
X118109020Y-119458800D02*
X117823305Y-119601657D01*
X117823305Y-119601657D02*
X117251877Y-119601657D01*
X117251877Y-119601657D02*
X116966163Y-119458800D01*
X116966163Y-119458800D02*
X116680448Y-119173085D01*
X116680448Y-119173085D02*
X116537591Y-118601657D01*
X116537591Y-118601657D02*
X116537591Y-117601657D01*
X116537591Y-117601657D02*
X116680448Y-117030228D01*
X116680448Y-117030228D02*
X116966163Y-116744514D01*
X116966163Y-116744514D02*
X117251877Y-116601657D01*
X119537591Y-116601657D02*
X120251877Y-119601657D01*
X120251877Y-119601657D02*
X120823305Y-117458800D01*
X120823305Y-117458800D02*
X121394734Y-119601657D01*
X121394734Y-119601657D02*
X122109020Y-116601657D01*
X123251876Y-119601657D02*
X123251876Y-116601657D01*
X123251876Y-116601657D02*
X124966162Y-119601657D01*
X124966162Y-119601657D02*
X124966162Y-116601657D01*
X126394733Y-119315942D02*
X126537590Y-119458800D01*
X126537590Y-119458800D02*
X126394733Y-119601657D01*
X126394733Y-119601657D02*
X126251876Y-119458800D01*
X126251876Y-119458800D02*
X126394733Y-119315942D01*
X126394733Y-119315942D02*
X126394733Y-119601657D01*
X127823304Y-118030228D02*
X128823304Y-118030228D01*
X129251876Y-119601657D02*
X127823304Y-119601657D01*
X127823304Y-119601657D02*
X127823304Y-116601657D01*
X127823304Y-116601657D02*
X129251876Y-116601657D01*
X130537590Y-119601657D02*
X130537590Y-116601657D01*
X130537590Y-116601657D02*
X131251876Y-116601657D01*
X131251876Y-116601657D02*
X131680447Y-116744514D01*
X131680447Y-116744514D02*
X131966162Y-117030228D01*
X131966162Y-117030228D02*
X132109019Y-117315942D01*
X132109019Y-117315942D02*
X132251876Y-117887371D01*
X132251876Y-117887371D02*
X132251876Y-118315942D01*
X132251876Y-118315942D02*
X132109019Y-118887371D01*
X132109019Y-118887371D02*
X131966162Y-119173085D01*
X131966162Y-119173085D02*
X131680447Y-119458800D01*
X131680447Y-119458800D02*
X131251876Y-119601657D01*
X131251876Y-119601657D02*
X130537590Y-119601657D01*
X133537590Y-116601657D02*
X133537590Y-119030228D01*
X133537590Y-119030228D02*
X133680447Y-119315942D01*
X133680447Y-119315942D02*
X133823305Y-119458800D01*
X133823305Y-119458800D02*
X134109019Y-119601657D01*
X134109019Y-119601657D02*
X134680447Y-119601657D01*
X134680447Y-119601657D02*
X134966162Y-119458800D01*
X134966162Y-119458800D02*
X135109019Y-119315942D01*
X135109019Y-119315942D02*
X135251876Y-119030228D01*
X135251876Y-119030228D02*
X135251876Y-116601657D01*
D11*
X58663333Y-59324819D02*
X58330000Y-58848628D01*
X58091905Y-59324819D02*
X58091905Y-58324819D01*
X58091905Y-58324819D02*
X58472857Y-58324819D01*
X58472857Y-58324819D02*
X58568095Y-58372438D01*
X58568095Y-58372438D02*
X58615714Y-58420057D01*
X58615714Y-58420057D02*
X58663333Y-58515295D01*
X58663333Y-58515295D02*
X58663333Y-58658152D01*
X58663333Y-58658152D02*
X58615714Y-58753390D01*
X58615714Y-58753390D02*
X58568095Y-58801009D01*
X58568095Y-58801009D02*
X58472857Y-58848628D01*
X58472857Y-58848628D02*
X58091905Y-58848628D01*
X59234762Y-58753390D02*
X59139524Y-58705771D01*
X59139524Y-58705771D02*
X59091905Y-58658152D01*
X59091905Y-58658152D02*
X59044286Y-58562914D01*
X59044286Y-58562914D02*
X59044286Y-58515295D01*
X59044286Y-58515295D02*
X59091905Y-58420057D01*
X59091905Y-58420057D02*
X59139524Y-58372438D01*
X59139524Y-58372438D02*
X59234762Y-58324819D01*
X59234762Y-58324819D02*
X59425238Y-58324819D01*
X59425238Y-58324819D02*
X59520476Y-58372438D01*
X59520476Y-58372438D02*
X59568095Y-58420057D01*
X59568095Y-58420057D02*
X59615714Y-58515295D01*
X59615714Y-58515295D02*
X59615714Y-58562914D01*
X59615714Y-58562914D02*
X59568095Y-58658152D01*
X59568095Y-58658152D02*
X59520476Y-58705771D01*
X59520476Y-58705771D02*
X59425238Y-58753390D01*
X59425238Y-58753390D02*
X59234762Y-58753390D01*
X59234762Y-58753390D02*
X59139524Y-58801009D01*
X59139524Y-58801009D02*
X59091905Y-58848628D01*
X59091905Y-58848628D02*
X59044286Y-58943866D01*
X59044286Y-58943866D02*
X59044286Y-59134342D01*
X59044286Y-59134342D02*
X59091905Y-59229580D01*
X59091905Y-59229580D02*
X59139524Y-59277200D01*
X59139524Y-59277200D02*
X59234762Y-59324819D01*
X59234762Y-59324819D02*
X59425238Y-59324819D01*
X59425238Y-59324819D02*
X59520476Y-59277200D01*
X59520476Y-59277200D02*
X59568095Y-59229580D01*
X59568095Y-59229580D02*
X59615714Y-59134342D01*
X59615714Y-59134342D02*
X59615714Y-58943866D01*
X59615714Y-58943866D02*
X59568095Y-58848628D01*
X59568095Y-58848628D02*
X59520476Y-58801009D01*
X59520476Y-58801009D02*
X59425238Y-58753390D01*
X58333333Y-129324819D02*
X58000000Y-128848628D01*
X57761905Y-129324819D02*
X57761905Y-128324819D01*
X57761905Y-128324819D02*
X58142857Y-128324819D01*
X58142857Y-128324819D02*
X58238095Y-128372438D01*
X58238095Y-128372438D02*
X58285714Y-128420057D01*
X58285714Y-128420057D02*
X58333333Y-128515295D01*
X58333333Y-128515295D02*
X58333333Y-128658152D01*
X58333333Y-128658152D02*
X58285714Y-128753390D01*
X58285714Y-128753390D02*
X58238095Y-128801009D01*
X58238095Y-128801009D02*
X58142857Y-128848628D01*
X58142857Y-128848628D02*
X57761905Y-128848628D01*
X58666667Y-128324819D02*
X59333333Y-128324819D01*
X59333333Y-128324819D02*
X58904762Y-129324819D01*
X210833333Y-72584819D02*
X210500000Y-72108628D01*
X210261905Y-72584819D02*
X210261905Y-71584819D01*
X210261905Y-71584819D02*
X210642857Y-71584819D01*
X210642857Y-71584819D02*
X210738095Y-71632438D01*
X210738095Y-71632438D02*
X210785714Y-71680057D01*
X210785714Y-71680057D02*
X210833333Y-71775295D01*
X210833333Y-71775295D02*
X210833333Y-71918152D01*
X210833333Y-71918152D02*
X210785714Y-72013390D01*
X210785714Y-72013390D02*
X210738095Y-72061009D01*
X210738095Y-72061009D02*
X210642857Y-72108628D01*
X210642857Y-72108628D02*
X210261905Y-72108628D01*
X211690476Y-71584819D02*
X211500000Y-71584819D01*
X211500000Y-71584819D02*
X211404762Y-71632438D01*
X211404762Y-71632438D02*
X211357143Y-71680057D01*
X211357143Y-71680057D02*
X211261905Y-71822914D01*
X211261905Y-71822914D02*
X211214286Y-72013390D01*
X211214286Y-72013390D02*
X211214286Y-72394342D01*
X211214286Y-72394342D02*
X211261905Y-72489580D01*
X211261905Y-72489580D02*
X211309524Y-72537200D01*
X211309524Y-72537200D02*
X211404762Y-72584819D01*
X211404762Y-72584819D02*
X211595238Y-72584819D01*
X211595238Y-72584819D02*
X211690476Y-72537200D01*
X211690476Y-72537200D02*
X211738095Y-72489580D01*
X211738095Y-72489580D02*
X211785714Y-72394342D01*
X211785714Y-72394342D02*
X211785714Y-72156247D01*
X211785714Y-72156247D02*
X211738095Y-72061009D01*
X211738095Y-72061009D02*
X211690476Y-72013390D01*
X211690476Y-72013390D02*
X211595238Y-71965771D01*
X211595238Y-71965771D02*
X211404762Y-71965771D01*
X211404762Y-71965771D02*
X211309524Y-72013390D01*
X211309524Y-72013390D02*
X211261905Y-72061009D01*
X211261905Y-72061009D02*
X211214286Y-72156247D01*
X46166666Y-61304819D02*
X46166666Y-62019104D01*
X46166666Y-62019104D02*
X46119047Y-62161961D01*
X46119047Y-62161961D02*
X46023809Y-62257200D01*
X46023809Y-62257200D02*
X45880952Y-62304819D01*
X45880952Y-62304819D02*
X45785714Y-62304819D01*
X47071428Y-61638152D02*
X47071428Y-62304819D01*
X46833333Y-61257200D02*
X46595238Y-61971485D01*
X46595238Y-61971485D02*
X47214285Y-61971485D01*
X226166666Y-68604819D02*
X226166666Y-69319104D01*
X226166666Y-69319104D02*
X226119047Y-69461961D01*
X226119047Y-69461961D02*
X226023809Y-69557200D01*
X226023809Y-69557200D02*
X225880952Y-69604819D01*
X225880952Y-69604819D02*
X225785714Y-69604819D01*
X226595238Y-68700057D02*
X226642857Y-68652438D01*
X226642857Y-68652438D02*
X226738095Y-68604819D01*
X226738095Y-68604819D02*
X226976190Y-68604819D01*
X226976190Y-68604819D02*
X227071428Y-68652438D01*
X227071428Y-68652438D02*
X227119047Y-68700057D01*
X227119047Y-68700057D02*
X227166666Y-68795295D01*
X227166666Y-68795295D02*
X227166666Y-68890533D01*
X227166666Y-68890533D02*
X227119047Y-69033390D01*
X227119047Y-69033390D02*
X226547619Y-69604819D01*
X226547619Y-69604819D02*
X227166666Y-69604819D01*
X45666666Y-131304819D02*
X45666666Y-132019104D01*
X45666666Y-132019104D02*
X45619047Y-132161961D01*
X45619047Y-132161961D02*
X45523809Y-132257200D01*
X45523809Y-132257200D02*
X45380952Y-132304819D01*
X45380952Y-132304819D02*
X45285714Y-132304819D01*
X46047619Y-131304819D02*
X46666666Y-131304819D01*
X46666666Y-131304819D02*
X46333333Y-131685771D01*
X46333333Y-131685771D02*
X46476190Y-131685771D01*
X46476190Y-131685771D02*
X46571428Y-131733390D01*
X46571428Y-131733390D02*
X46619047Y-131781009D01*
X46619047Y-131781009D02*
X46666666Y-131876247D01*
X46666666Y-131876247D02*
X46666666Y-132114342D01*
X46666666Y-132114342D02*
X46619047Y-132209580D01*
X46619047Y-132209580D02*
X46571428Y-132257200D01*
X46571428Y-132257200D02*
X46476190Y-132304819D01*
X46476190Y-132304819D02*
X46190476Y-132304819D01*
X46190476Y-132304819D02*
X46095238Y-132257200D01*
X46095238Y-132257200D02*
X46047619Y-132209580D01*
D12*
%TO.C,R8*%
X62870000Y-56500000D02*
X62100000Y-56500000D01*
X62100000Y-57870000D02*
X62100000Y-55130000D01*
X62100000Y-55130000D02*
X55560000Y-55130000D01*
X55560000Y-57870000D02*
X62100000Y-57870000D01*
X55560000Y-55130000D02*
X55560000Y-57870000D01*
X54790000Y-56500000D02*
X55560000Y-56500000D01*
%TO.C,R7*%
X54460000Y-126500000D02*
X55230000Y-126500000D01*
X55230000Y-125130000D02*
X55230000Y-127870000D01*
X55230000Y-127870000D02*
X61770000Y-127870000D01*
X61770000Y-125130000D02*
X55230000Y-125130000D01*
X61770000Y-127870000D02*
X61770000Y-125130000D01*
X62540000Y-126500000D02*
X61770000Y-126500000D01*
%TO.C,R6*%
X206960000Y-74500000D02*
X207730000Y-74500000D01*
X207730000Y-73130000D02*
X207730000Y-75870000D01*
X207730000Y-75870000D02*
X214270000Y-75870000D01*
X214270000Y-73130000D02*
X207730000Y-73130000D01*
X214270000Y-75870000D02*
X214270000Y-73130000D01*
X215040000Y-74500000D02*
X214270000Y-74500000D01*
%TO.C,J4*%
X45170000Y-57810000D02*
X45170000Y-52670000D01*
X45170000Y-60410000D02*
X45170000Y-59080000D01*
X46500000Y-60410000D02*
X45170000Y-60410000D01*
X47830000Y-52670000D02*
X45170000Y-52670000D01*
X47830000Y-57810000D02*
X45170000Y-57810000D01*
X47830000Y-57810000D02*
X47830000Y-52670000D01*
%TO.C,J2*%
X225170000Y-73190000D02*
X225170000Y-78330000D01*
X225170000Y-73190000D02*
X227830000Y-73190000D01*
X225170000Y-78330000D02*
X227830000Y-78330000D01*
X226500000Y-70590000D02*
X227830000Y-70590000D01*
X227830000Y-70590000D02*
X227830000Y-71920000D01*
X227830000Y-73190000D02*
X227830000Y-78330000D01*
%TO.C,J3*%
X44670000Y-127810000D02*
X44670000Y-122670000D01*
X44670000Y-130410000D02*
X44670000Y-129080000D01*
X46000000Y-130410000D02*
X44670000Y-130410000D01*
X47330000Y-122670000D02*
X44670000Y-122670000D01*
X47330000Y-127810000D02*
X44670000Y-127810000D01*
X47330000Y-127810000D02*
X47330000Y-122670000D01*
%TD*%
M02*
