%TF.GenerationSoftware,KiCad,Pcbnew,8.0.3*%
%TF.CreationDate,2024-11-03T11:14:26-05:00*%
%TF.ProjectId,toy,746f792e-6b69-4636-9164-5f7063625858,rev?*%
%TF.SameCoordinates,Original*%
%TF.FileFunction,Legend,Bot*%
%TF.FilePolarity,Positive*%
%FSLAX46Y46*%
G04 Gerber Fmt 4.6, Leading zero omitted, Abs format (unit mm)*
G04 Created by KiCad (PCBNEW 8.0.3) date 2024-11-03 11:14:26*
%MOMM*%
%LPD*%
G01*
G04 APERTURE LIST*
%ADD10C,0.100000*%
%ADD11C,0.150000*%
%ADD12C,0.120000*%
G04 APERTURE END LIST*
D10*
X196172306Y-114420038D02*
X196267544Y-114372419D01*
X196267544Y-114372419D02*
X196410401Y-114372419D01*
X196410401Y-114372419D02*
X196553258Y-114420038D01*
X196553258Y-114420038D02*
X196648496Y-114515276D01*
X196648496Y-114515276D02*
X196696115Y-114610514D01*
X196696115Y-114610514D02*
X196743734Y-114800990D01*
X196743734Y-114800990D02*
X196743734Y-114943847D01*
X196743734Y-114943847D02*
X196696115Y-115134323D01*
X196696115Y-115134323D02*
X196648496Y-115229561D01*
X196648496Y-115229561D02*
X196553258Y-115324800D01*
X196553258Y-115324800D02*
X196410401Y-115372419D01*
X196410401Y-115372419D02*
X196315163Y-115372419D01*
X196315163Y-115372419D02*
X196172306Y-115324800D01*
X196172306Y-115324800D02*
X196124687Y-115277180D01*
X196124687Y-115277180D02*
X196124687Y-114943847D01*
X196124687Y-114943847D02*
X196315163Y-114943847D01*
X195696115Y-115372419D02*
X195696115Y-114372419D01*
X195696115Y-114372419D02*
X195124687Y-115372419D01*
X195124687Y-115372419D02*
X195124687Y-114372419D01*
X194648496Y-115372419D02*
X194648496Y-114372419D01*
X194648496Y-114372419D02*
X194410401Y-114372419D01*
X194410401Y-114372419D02*
X194267544Y-114420038D01*
X194267544Y-114420038D02*
X194172306Y-114515276D01*
X194172306Y-114515276D02*
X194124687Y-114610514D01*
X194124687Y-114610514D02*
X194077068Y-114800990D01*
X194077068Y-114800990D02*
X194077068Y-114943847D01*
X194077068Y-114943847D02*
X194124687Y-115134323D01*
X194124687Y-115134323D02*
X194172306Y-115229561D01*
X194172306Y-115229561D02*
X194267544Y-115324800D01*
X194267544Y-115324800D02*
X194410401Y-115372419D01*
X194410401Y-115372419D02*
X194648496Y-115372419D01*
D11*
X219666666Y-57609580D02*
X219714285Y-57657200D01*
X219714285Y-57657200D02*
X219857142Y-57704819D01*
X219857142Y-57704819D02*
X219952380Y-57704819D01*
X219952380Y-57704819D02*
X220095237Y-57657200D01*
X220095237Y-57657200D02*
X220190475Y-57561961D01*
X220190475Y-57561961D02*
X220238094Y-57466723D01*
X220238094Y-57466723D02*
X220285713Y-57276247D01*
X220285713Y-57276247D02*
X220285713Y-57133390D01*
X220285713Y-57133390D02*
X220238094Y-56942914D01*
X220238094Y-56942914D02*
X220190475Y-56847676D01*
X220190475Y-56847676D02*
X220095237Y-56752438D01*
X220095237Y-56752438D02*
X219952380Y-56704819D01*
X219952380Y-56704819D02*
X219857142Y-56704819D01*
X219857142Y-56704819D02*
X219714285Y-56752438D01*
X219714285Y-56752438D02*
X219666666Y-56800057D01*
X218809523Y-57038152D02*
X218809523Y-57704819D01*
X219047618Y-56657200D02*
X219285713Y-57371485D01*
X219285713Y-57371485D02*
X218666666Y-57371485D01*
X177166666Y-78359580D02*
X177214285Y-78407200D01*
X177214285Y-78407200D02*
X177357142Y-78454819D01*
X177357142Y-78454819D02*
X177452380Y-78454819D01*
X177452380Y-78454819D02*
X177595237Y-78407200D01*
X177595237Y-78407200D02*
X177690475Y-78311961D01*
X177690475Y-78311961D02*
X177738094Y-78216723D01*
X177738094Y-78216723D02*
X177785713Y-78026247D01*
X177785713Y-78026247D02*
X177785713Y-77883390D01*
X177785713Y-77883390D02*
X177738094Y-77692914D01*
X177738094Y-77692914D02*
X177690475Y-77597676D01*
X177690475Y-77597676D02*
X177595237Y-77502438D01*
X177595237Y-77502438D02*
X177452380Y-77454819D01*
X177452380Y-77454819D02*
X177357142Y-77454819D01*
X177357142Y-77454819D02*
X177214285Y-77502438D01*
X177214285Y-77502438D02*
X177166666Y-77550057D01*
X176833332Y-77454819D02*
X176214285Y-77454819D01*
X176214285Y-77454819D02*
X176547618Y-77835771D01*
X176547618Y-77835771D02*
X176404761Y-77835771D01*
X176404761Y-77835771D02*
X176309523Y-77883390D01*
X176309523Y-77883390D02*
X176261904Y-77931009D01*
X176261904Y-77931009D02*
X176214285Y-78026247D01*
X176214285Y-78026247D02*
X176214285Y-78264342D01*
X176214285Y-78264342D02*
X176261904Y-78359580D01*
X176261904Y-78359580D02*
X176309523Y-78407200D01*
X176309523Y-78407200D02*
X176404761Y-78454819D01*
X176404761Y-78454819D02*
X176690475Y-78454819D01*
X176690475Y-78454819D02*
X176785713Y-78407200D01*
X176785713Y-78407200D02*
X176833332Y-78359580D01*
X55859580Y-135583333D02*
X55907200Y-135535714D01*
X55907200Y-135535714D02*
X55954819Y-135392857D01*
X55954819Y-135392857D02*
X55954819Y-135297619D01*
X55954819Y-135297619D02*
X55907200Y-135154762D01*
X55907200Y-135154762D02*
X55811961Y-135059524D01*
X55811961Y-135059524D02*
X55716723Y-135011905D01*
X55716723Y-135011905D02*
X55526247Y-134964286D01*
X55526247Y-134964286D02*
X55383390Y-134964286D01*
X55383390Y-134964286D02*
X55192914Y-135011905D01*
X55192914Y-135011905D02*
X55097676Y-135059524D01*
X55097676Y-135059524D02*
X55002438Y-135154762D01*
X55002438Y-135154762D02*
X54954819Y-135297619D01*
X54954819Y-135297619D02*
X54954819Y-135392857D01*
X54954819Y-135392857D02*
X55002438Y-135535714D01*
X55002438Y-135535714D02*
X55050057Y-135583333D01*
X55050057Y-135964286D02*
X55002438Y-136011905D01*
X55002438Y-136011905D02*
X54954819Y-136107143D01*
X54954819Y-136107143D02*
X54954819Y-136345238D01*
X54954819Y-136345238D02*
X55002438Y-136440476D01*
X55002438Y-136440476D02*
X55050057Y-136488095D01*
X55050057Y-136488095D02*
X55145295Y-136535714D01*
X55145295Y-136535714D02*
X55240533Y-136535714D01*
X55240533Y-136535714D02*
X55383390Y-136488095D01*
X55383390Y-136488095D02*
X55954819Y-135916667D01*
X55954819Y-135916667D02*
X55954819Y-136535714D01*
X50359580Y-70583333D02*
X50407200Y-70535714D01*
X50407200Y-70535714D02*
X50454819Y-70392857D01*
X50454819Y-70392857D02*
X50454819Y-70297619D01*
X50454819Y-70297619D02*
X50407200Y-70154762D01*
X50407200Y-70154762D02*
X50311961Y-70059524D01*
X50311961Y-70059524D02*
X50216723Y-70011905D01*
X50216723Y-70011905D02*
X50026247Y-69964286D01*
X50026247Y-69964286D02*
X49883390Y-69964286D01*
X49883390Y-69964286D02*
X49692914Y-70011905D01*
X49692914Y-70011905D02*
X49597676Y-70059524D01*
X49597676Y-70059524D02*
X49502438Y-70154762D01*
X49502438Y-70154762D02*
X49454819Y-70297619D01*
X49454819Y-70297619D02*
X49454819Y-70392857D01*
X49454819Y-70392857D02*
X49502438Y-70535714D01*
X49502438Y-70535714D02*
X49550057Y-70583333D01*
X50454819Y-71535714D02*
X50454819Y-70964286D01*
X50454819Y-71250000D02*
X49454819Y-71250000D01*
X49454819Y-71250000D02*
X49597676Y-71154762D01*
X49597676Y-71154762D02*
X49692914Y-71059524D01*
X49692914Y-71059524D02*
X49740533Y-70964286D01*
X187409104Y-90165714D02*
X187409104Y-90641904D01*
X187694819Y-90070476D02*
X186694819Y-90403809D01*
X186694819Y-90403809D02*
X187694819Y-90737142D01*
X187694819Y-91594285D02*
X187694819Y-91022857D01*
X187694819Y-91308571D02*
X186694819Y-91308571D01*
X186694819Y-91308571D02*
X186837676Y-91213333D01*
X186837676Y-91213333D02*
X186932914Y-91118095D01*
X186932914Y-91118095D02*
X186980533Y-91022857D01*
X147145180Y-92141904D02*
X146335657Y-92141904D01*
X146335657Y-92141904D02*
X146240419Y-92094285D01*
X146240419Y-92094285D02*
X146192800Y-92046666D01*
X146192800Y-92046666D02*
X146145180Y-91951428D01*
X146145180Y-91951428D02*
X146145180Y-91760952D01*
X146145180Y-91760952D02*
X146192800Y-91665714D01*
X146192800Y-91665714D02*
X146240419Y-91618095D01*
X146240419Y-91618095D02*
X146335657Y-91570476D01*
X146335657Y-91570476D02*
X147145180Y-91570476D01*
X146192800Y-91141904D02*
X146145180Y-90999047D01*
X146145180Y-90999047D02*
X146145180Y-90760952D01*
X146145180Y-90760952D02*
X146192800Y-90665714D01*
X146192800Y-90665714D02*
X146240419Y-90618095D01*
X146240419Y-90618095D02*
X146335657Y-90570476D01*
X146335657Y-90570476D02*
X146430895Y-90570476D01*
X146430895Y-90570476D02*
X146526133Y-90618095D01*
X146526133Y-90618095D02*
X146573752Y-90665714D01*
X146573752Y-90665714D02*
X146621371Y-90760952D01*
X146621371Y-90760952D02*
X146668990Y-90951428D01*
X146668990Y-90951428D02*
X146716609Y-91046666D01*
X146716609Y-91046666D02*
X146764228Y-91094285D01*
X146764228Y-91094285D02*
X146859466Y-91141904D01*
X146859466Y-91141904D02*
X146954704Y-91141904D01*
X146954704Y-91141904D02*
X147049942Y-91094285D01*
X147049942Y-91094285D02*
X147097561Y-91046666D01*
X147097561Y-91046666D02*
X147145180Y-90951428D01*
X147145180Y-90951428D02*
X147145180Y-90713333D01*
X147145180Y-90713333D02*
X147097561Y-90570476D01*
X146668990Y-89808571D02*
X146621371Y-89665714D01*
X146621371Y-89665714D02*
X146573752Y-89618095D01*
X146573752Y-89618095D02*
X146478514Y-89570476D01*
X146478514Y-89570476D02*
X146335657Y-89570476D01*
X146335657Y-89570476D02*
X146240419Y-89618095D01*
X146240419Y-89618095D02*
X146192800Y-89665714D01*
X146192800Y-89665714D02*
X146145180Y-89760952D01*
X146145180Y-89760952D02*
X146145180Y-90141904D01*
X146145180Y-90141904D02*
X147145180Y-90141904D01*
X147145180Y-90141904D02*
X147145180Y-89808571D01*
X147145180Y-89808571D02*
X147097561Y-89713333D01*
X147097561Y-89713333D02*
X147049942Y-89665714D01*
X147049942Y-89665714D02*
X146954704Y-89618095D01*
X146954704Y-89618095D02*
X146859466Y-89618095D01*
X146859466Y-89618095D02*
X146764228Y-89665714D01*
X146764228Y-89665714D02*
X146716609Y-89713333D01*
X146716609Y-89713333D02*
X146668990Y-89808571D01*
X146668990Y-89808571D02*
X146668990Y-90141904D01*
X53584819Y-91163333D02*
X53108628Y-90830000D01*
X53584819Y-90591905D02*
X52584819Y-90591905D01*
X52584819Y-90591905D02*
X52584819Y-90972857D01*
X52584819Y-90972857D02*
X52632438Y-91068095D01*
X52632438Y-91068095D02*
X52680057Y-91115714D01*
X52680057Y-91115714D02*
X52775295Y-91163333D01*
X52775295Y-91163333D02*
X52918152Y-91163333D01*
X52918152Y-91163333D02*
X53013390Y-91115714D01*
X53013390Y-91115714D02*
X53061009Y-91068095D01*
X53061009Y-91068095D02*
X53108628Y-90972857D01*
X53108628Y-90972857D02*
X53108628Y-90591905D01*
X52680057Y-91544286D02*
X52632438Y-91591905D01*
X52632438Y-91591905D02*
X52584819Y-91687143D01*
X52584819Y-91687143D02*
X52584819Y-91925238D01*
X52584819Y-91925238D02*
X52632438Y-92020476D01*
X52632438Y-92020476D02*
X52680057Y-92068095D01*
X52680057Y-92068095D02*
X52775295Y-92115714D01*
X52775295Y-92115714D02*
X52870533Y-92115714D01*
X52870533Y-92115714D02*
X53013390Y-92068095D01*
X53013390Y-92068095D02*
X53584819Y-91496667D01*
X53584819Y-91496667D02*
X53584819Y-92115714D01*
X136586666Y-48334819D02*
X136919999Y-47858628D01*
X137158094Y-48334819D02*
X137158094Y-47334819D01*
X137158094Y-47334819D02*
X136777142Y-47334819D01*
X136777142Y-47334819D02*
X136681904Y-47382438D01*
X136681904Y-47382438D02*
X136634285Y-47430057D01*
X136634285Y-47430057D02*
X136586666Y-47525295D01*
X136586666Y-47525295D02*
X136586666Y-47668152D01*
X136586666Y-47668152D02*
X136634285Y-47763390D01*
X136634285Y-47763390D02*
X136681904Y-47811009D01*
X136681904Y-47811009D02*
X136777142Y-47858628D01*
X136777142Y-47858628D02*
X137158094Y-47858628D01*
X135729523Y-47668152D02*
X135729523Y-48334819D01*
X135967618Y-47287200D02*
X136205713Y-48001485D01*
X136205713Y-48001485D02*
X135586666Y-48001485D01*
X136916666Y-135574819D02*
X137249999Y-135098628D01*
X137488094Y-135574819D02*
X137488094Y-134574819D01*
X137488094Y-134574819D02*
X137107142Y-134574819D01*
X137107142Y-134574819D02*
X137011904Y-134622438D01*
X137011904Y-134622438D02*
X136964285Y-134670057D01*
X136964285Y-134670057D02*
X136916666Y-134765295D01*
X136916666Y-134765295D02*
X136916666Y-134908152D01*
X136916666Y-134908152D02*
X136964285Y-135003390D01*
X136964285Y-135003390D02*
X137011904Y-135051009D01*
X137011904Y-135051009D02*
X137107142Y-135098628D01*
X137107142Y-135098628D02*
X137488094Y-135098628D01*
X136583332Y-134574819D02*
X135964285Y-134574819D01*
X135964285Y-134574819D02*
X136297618Y-134955771D01*
X136297618Y-134955771D02*
X136154761Y-134955771D01*
X136154761Y-134955771D02*
X136059523Y-135003390D01*
X136059523Y-135003390D02*
X136011904Y-135051009D01*
X136011904Y-135051009D02*
X135964285Y-135146247D01*
X135964285Y-135146247D02*
X135964285Y-135384342D01*
X135964285Y-135384342D02*
X136011904Y-135479580D01*
X136011904Y-135479580D02*
X136059523Y-135527200D01*
X136059523Y-135527200D02*
X136154761Y-135574819D01*
X136154761Y-135574819D02*
X136440475Y-135574819D01*
X136440475Y-135574819D02*
X136535713Y-135527200D01*
X136535713Y-135527200D02*
X136583332Y-135479580D01*
D10*
X198971904Y-101957419D02*
X198971904Y-102766942D01*
X198971904Y-102766942D02*
X198924285Y-102862180D01*
X198924285Y-102862180D02*
X198876666Y-102909800D01*
X198876666Y-102909800D02*
X198781428Y-102957419D01*
X198781428Y-102957419D02*
X198590952Y-102957419D01*
X198590952Y-102957419D02*
X198495714Y-102909800D01*
X198495714Y-102909800D02*
X198448095Y-102862180D01*
X198448095Y-102862180D02*
X198400476Y-102766942D01*
X198400476Y-102766942D02*
X198400476Y-101957419D01*
X197448095Y-101957419D02*
X197924285Y-101957419D01*
X197924285Y-101957419D02*
X197971904Y-102433609D01*
X197971904Y-102433609D02*
X197924285Y-102385990D01*
X197924285Y-102385990D02*
X197829047Y-102338371D01*
X197829047Y-102338371D02*
X197590952Y-102338371D01*
X197590952Y-102338371D02*
X197495714Y-102385990D01*
X197495714Y-102385990D02*
X197448095Y-102433609D01*
X197448095Y-102433609D02*
X197400476Y-102528847D01*
X197400476Y-102528847D02*
X197400476Y-102766942D01*
X197400476Y-102766942D02*
X197448095Y-102862180D01*
X197448095Y-102862180D02*
X197495714Y-102909800D01*
X197495714Y-102909800D02*
X197590952Y-102957419D01*
X197590952Y-102957419D02*
X197829047Y-102957419D01*
X197829047Y-102957419D02*
X197924285Y-102909800D01*
X197924285Y-102909800D02*
X197971904Y-102862180D01*
D11*
X179424819Y-113166666D02*
X180139104Y-113166666D01*
X180139104Y-113166666D02*
X180281961Y-113119047D01*
X180281961Y-113119047D02*
X180377200Y-113023809D01*
X180377200Y-113023809D02*
X180424819Y-112880952D01*
X180424819Y-112880952D02*
X180424819Y-112785714D01*
X180424819Y-114166666D02*
X180424819Y-113595238D01*
X180424819Y-113880952D02*
X179424819Y-113880952D01*
X179424819Y-113880952D02*
X179567676Y-113785714D01*
X179567676Y-113785714D02*
X179662914Y-113690476D01*
X179662914Y-113690476D02*
X179710533Y-113595238D01*
X219574819Y-91253333D02*
X219098628Y-90920000D01*
X219574819Y-90681905D02*
X218574819Y-90681905D01*
X218574819Y-90681905D02*
X218574819Y-91062857D01*
X218574819Y-91062857D02*
X218622438Y-91158095D01*
X218622438Y-91158095D02*
X218670057Y-91205714D01*
X218670057Y-91205714D02*
X218765295Y-91253333D01*
X218765295Y-91253333D02*
X218908152Y-91253333D01*
X218908152Y-91253333D02*
X219003390Y-91205714D01*
X219003390Y-91205714D02*
X219051009Y-91158095D01*
X219051009Y-91158095D02*
X219098628Y-91062857D01*
X219098628Y-91062857D02*
X219098628Y-90681905D01*
X219574819Y-92205714D02*
X219574819Y-91634286D01*
X219574819Y-91920000D02*
X218574819Y-91920000D01*
X218574819Y-91920000D02*
X218717676Y-91824762D01*
X218717676Y-91824762D02*
X218812914Y-91729524D01*
X218812914Y-91729524D02*
X218860533Y-91634286D01*
X197666666Y-96584819D02*
X197999999Y-96108628D01*
X198238094Y-96584819D02*
X198238094Y-95584819D01*
X198238094Y-95584819D02*
X197857142Y-95584819D01*
X197857142Y-95584819D02*
X197761904Y-95632438D01*
X197761904Y-95632438D02*
X197714285Y-95680057D01*
X197714285Y-95680057D02*
X197666666Y-95775295D01*
X197666666Y-95775295D02*
X197666666Y-95918152D01*
X197666666Y-95918152D02*
X197714285Y-96013390D01*
X197714285Y-96013390D02*
X197761904Y-96061009D01*
X197761904Y-96061009D02*
X197857142Y-96108628D01*
X197857142Y-96108628D02*
X198238094Y-96108628D01*
X196761904Y-95584819D02*
X197238094Y-95584819D01*
X197238094Y-95584819D02*
X197285713Y-96061009D01*
X197285713Y-96061009D02*
X197238094Y-96013390D01*
X197238094Y-96013390D02*
X197142856Y-95965771D01*
X197142856Y-95965771D02*
X196904761Y-95965771D01*
X196904761Y-95965771D02*
X196809523Y-96013390D01*
X196809523Y-96013390D02*
X196761904Y-96061009D01*
X196761904Y-96061009D02*
X196714285Y-96156247D01*
X196714285Y-96156247D02*
X196714285Y-96394342D01*
X196714285Y-96394342D02*
X196761904Y-96489580D01*
X196761904Y-96489580D02*
X196809523Y-96537200D01*
X196809523Y-96537200D02*
X196904761Y-96584819D01*
X196904761Y-96584819D02*
X197142856Y-96584819D01*
X197142856Y-96584819D02*
X197238094Y-96537200D01*
X197238094Y-96537200D02*
X197285713Y-96489580D01*
D12*
%TO.C,C4*%
X222022262Y-59635000D02*
X222572262Y-59635000D01*
X222297262Y-59910000D02*
X222297262Y-59360000D01*
X216832923Y-60190000D02*
G75*
G02*
X222167077Y-60190000I2667077J-1060000D01*
G01*
X222167077Y-62310000D02*
G75*
G02*
X216832923Y-62310000I-2667077J1060000D01*
G01*
%TO.C,C3*%
X174477738Y-75615000D02*
X173927738Y-75615000D01*
X174202738Y-75340000D02*
X174202738Y-75890000D01*
X179667077Y-75060000D02*
G75*
G02*
X174332923Y-75060000I-2667077J1060000D01*
G01*
X174332923Y-72940000D02*
G75*
G02*
X179667077Y-72940000I2667077J-1060000D01*
G01*
%TO.C,C2*%
X57885000Y-133227738D02*
X57885000Y-132677738D01*
X58160000Y-132952738D02*
X57610000Y-132952738D01*
X58440000Y-138417077D02*
G75*
G02*
X58440000Y-133082923I1060000J2667077D01*
G01*
X60560000Y-133082923D02*
G75*
G02*
X60560000Y-138417077I-1060000J-2667077D01*
G01*
%TO.C,C1*%
X52385000Y-68227738D02*
X52385000Y-67677738D01*
X52660000Y-67952738D02*
X52110000Y-67952738D01*
X52940000Y-73417077D02*
G75*
G02*
X52940000Y-68082923I1060000J2667077D01*
G01*
X55060000Y-68082923D02*
G75*
G02*
X55060000Y-73417077I-1060000J-2667077D01*
G01*
%TO.C,A1*%
X140120000Y-86940000D02*
X150540000Y-86940000D01*
X140120000Y-94820000D02*
X140120000Y-86940000D01*
X142660000Y-86940000D02*
X142660000Y-81860000D01*
X142660000Y-94820000D02*
X142660000Y-99900000D01*
X142660000Y-99900000D02*
X180890000Y-99900000D01*
X145330000Y-81860000D02*
X145330000Y-84530000D01*
X145330000Y-84530000D02*
X183430000Y-84530000D01*
X145330000Y-97230000D02*
X180890000Y-97230000D01*
X145330000Y-99900000D02*
X145330000Y-97230000D01*
X150540000Y-86940000D02*
X150540000Y-94820000D01*
X150540000Y-94820000D02*
X140120000Y-94820000D01*
X180890000Y-99900000D02*
X180890000Y-97230000D01*
X183430000Y-81860000D02*
X183430000Y-84530000D01*
X183430000Y-97230000D02*
X180890000Y-97230000D01*
X183430000Y-99900000D02*
X183430000Y-97230000D01*
X183430000Y-99900000D02*
X186100000Y-99900000D01*
X186100000Y-81860000D02*
X142660000Y-81860000D01*
X186100000Y-99900000D02*
X186100000Y-81860000D01*
%TO.C,R2*%
X54130000Y-94600000D02*
X56870000Y-94600000D01*
X55500000Y-94600000D02*
X55500000Y-95370000D01*
X56870000Y-94600000D02*
X56870000Y-88060000D01*
X54130000Y-88060000D02*
X54130000Y-94600000D01*
X55500000Y-88060000D02*
X55500000Y-87290000D01*
X56870000Y-88060000D02*
X54130000Y-88060000D01*
%TO.C,R4*%
X133150000Y-51620000D02*
X139690000Y-51620000D01*
X139690000Y-51620000D02*
X139690000Y-48880000D01*
X133150000Y-50250000D02*
X132380000Y-50250000D01*
X139690000Y-50250000D02*
X140460000Y-50250000D01*
X133150000Y-48880000D02*
X133150000Y-51620000D01*
X139690000Y-48880000D02*
X133150000Y-48880000D01*
%TO.C,R3*%
X133480000Y-134120000D02*
X140020000Y-134120000D01*
X140020000Y-134120000D02*
X140020000Y-131380000D01*
X133480000Y-132750000D02*
X132710000Y-132750000D01*
X140020000Y-132750000D02*
X140790000Y-132750000D01*
X133480000Y-131380000D02*
X133480000Y-134120000D01*
X140020000Y-131380000D02*
X133480000Y-131380000D01*
D10*
%TO.C,U5*%
X203446344Y-113160000D02*
G75*
G02*
X192973656Y-113160000I-5236344J0D01*
G01*
X192973656Y-113160000D02*
G75*
G02*
X203446344Y-113160000I5236344J0D01*
G01*
D12*
%TO.C,J1*%
X160630000Y-112170000D02*
X160630000Y-114830000D01*
X160630000Y-112170000D02*
X175930000Y-112170000D01*
X160630000Y-114830000D02*
X175930000Y-114830000D01*
X175930000Y-112170000D02*
X175930000Y-114830000D01*
X177200000Y-112170000D02*
X178530000Y-112170000D01*
X178530000Y-112170000D02*
X178530000Y-113500000D01*
%TO.C,R1*%
X215380000Y-94690000D02*
X218120000Y-94690000D01*
X216750000Y-94690000D02*
X216750000Y-95460000D01*
X218120000Y-94690000D02*
X218120000Y-88150000D01*
X215380000Y-88150000D02*
X215380000Y-94690000D01*
X216750000Y-88150000D02*
X216750000Y-87380000D01*
X218120000Y-88150000D02*
X215380000Y-88150000D01*
%TO.C,R5*%
X194230000Y-97130000D02*
X194230000Y-99870000D01*
X194230000Y-98500000D02*
X193460000Y-98500000D01*
X194230000Y-99870000D02*
X200770000Y-99870000D01*
X200770000Y-97130000D02*
X194230000Y-97130000D01*
X200770000Y-98500000D02*
X201540000Y-98500000D01*
X200770000Y-99870000D02*
X200770000Y-97130000D01*
%TD*%
M02*
