%TF.GenerationSoftware,KiCad,Pcbnew,8.0.3*%
%TF.CreationDate,2024-11-03T12:34:39-05:00*%
%TF.ProjectId,toy,746f792e-6b69-4636-9164-5f7063625858,rev?*%
%TF.SameCoordinates,Original*%
%TF.FileFunction,Legend,Bot*%
%TF.FilePolarity,Positive*%
%FSLAX46Y46*%
G04 Gerber Fmt 4.6, Leading zero omitted, Abs format (unit mm)*
G04 Created by KiCad (PCBNEW 8.0.3) date 2024-11-03 12:34:39*
%MOMM*%
%LPD*%
G01*
G04 APERTURE LIST*
%ADD10C,0.100000*%
%ADD11C,0.150000*%
%ADD12C,0.120000*%
G04 APERTURE END LIST*
D10*
X207092306Y-114608210D02*
X207187544Y-114560591D01*
X207187544Y-114560591D02*
X207330401Y-114560591D01*
X207330401Y-114560591D02*
X207473258Y-114608210D01*
X207473258Y-114608210D02*
X207568496Y-114703448D01*
X207568496Y-114703448D02*
X207616115Y-114798686D01*
X207616115Y-114798686D02*
X207663734Y-114989162D01*
X207663734Y-114989162D02*
X207663734Y-115132019D01*
X207663734Y-115132019D02*
X207616115Y-115322495D01*
X207616115Y-115322495D02*
X207568496Y-115417733D01*
X207568496Y-115417733D02*
X207473258Y-115512972D01*
X207473258Y-115512972D02*
X207330401Y-115560591D01*
X207330401Y-115560591D02*
X207235163Y-115560591D01*
X207235163Y-115560591D02*
X207092306Y-115512972D01*
X207092306Y-115512972D02*
X207044687Y-115465352D01*
X207044687Y-115465352D02*
X207044687Y-115132019D01*
X207044687Y-115132019D02*
X207235163Y-115132019D01*
X206616115Y-115560591D02*
X206616115Y-114560591D01*
X206616115Y-114560591D02*
X206044687Y-115560591D01*
X206044687Y-115560591D02*
X206044687Y-114560591D01*
X205568496Y-115560591D02*
X205568496Y-114560591D01*
X205568496Y-114560591D02*
X205330401Y-114560591D01*
X205330401Y-114560591D02*
X205187544Y-114608210D01*
X205187544Y-114608210D02*
X205092306Y-114703448D01*
X205092306Y-114703448D02*
X205044687Y-114798686D01*
X205044687Y-114798686D02*
X204997068Y-114989162D01*
X204997068Y-114989162D02*
X204997068Y-115132019D01*
X204997068Y-115132019D02*
X205044687Y-115322495D01*
X205044687Y-115322495D02*
X205092306Y-115417733D01*
X205092306Y-115417733D02*
X205187544Y-115512972D01*
X205187544Y-115512972D02*
X205330401Y-115560591D01*
X205330401Y-115560591D02*
X205568496Y-115560591D01*
D11*
X197142857Y-48834819D02*
X197476190Y-48358628D01*
X197714285Y-48834819D02*
X197714285Y-47834819D01*
X197714285Y-47834819D02*
X197333333Y-47834819D01*
X197333333Y-47834819D02*
X197238095Y-47882438D01*
X197238095Y-47882438D02*
X197190476Y-47930057D01*
X197190476Y-47930057D02*
X197142857Y-48025295D01*
X197142857Y-48025295D02*
X197142857Y-48168152D01*
X197142857Y-48168152D02*
X197190476Y-48263390D01*
X197190476Y-48263390D02*
X197238095Y-48311009D01*
X197238095Y-48311009D02*
X197333333Y-48358628D01*
X197333333Y-48358628D02*
X197714285Y-48358628D01*
X196190476Y-48834819D02*
X196761904Y-48834819D01*
X196476190Y-48834819D02*
X196476190Y-47834819D01*
X196476190Y-47834819D02*
X196571428Y-47977676D01*
X196571428Y-47977676D02*
X196666666Y-48072914D01*
X196666666Y-48072914D02*
X196761904Y-48120533D01*
X195571428Y-47834819D02*
X195476190Y-47834819D01*
X195476190Y-47834819D02*
X195380952Y-47882438D01*
X195380952Y-47882438D02*
X195333333Y-47930057D01*
X195333333Y-47930057D02*
X195285714Y-48025295D01*
X195285714Y-48025295D02*
X195238095Y-48215771D01*
X195238095Y-48215771D02*
X195238095Y-48453866D01*
X195238095Y-48453866D02*
X195285714Y-48644342D01*
X195285714Y-48644342D02*
X195333333Y-48739580D01*
X195333333Y-48739580D02*
X195380952Y-48787200D01*
X195380952Y-48787200D02*
X195476190Y-48834819D01*
X195476190Y-48834819D02*
X195571428Y-48834819D01*
X195571428Y-48834819D02*
X195666666Y-48787200D01*
X195666666Y-48787200D02*
X195714285Y-48739580D01*
X195714285Y-48739580D02*
X195761904Y-48644342D01*
X195761904Y-48644342D02*
X195809523Y-48453866D01*
X195809523Y-48453866D02*
X195809523Y-48215771D01*
X195809523Y-48215771D02*
X195761904Y-48025295D01*
X195761904Y-48025295D02*
X195714285Y-47930057D01*
X195714285Y-47930057D02*
X195666666Y-47882438D01*
X195666666Y-47882438D02*
X195571428Y-47834819D01*
X196996666Y-135074819D02*
X197329999Y-134598628D01*
X197568094Y-135074819D02*
X197568094Y-134074819D01*
X197568094Y-134074819D02*
X197187142Y-134074819D01*
X197187142Y-134074819D02*
X197091904Y-134122438D01*
X197091904Y-134122438D02*
X197044285Y-134170057D01*
X197044285Y-134170057D02*
X196996666Y-134265295D01*
X196996666Y-134265295D02*
X196996666Y-134408152D01*
X196996666Y-134408152D02*
X197044285Y-134503390D01*
X197044285Y-134503390D02*
X197091904Y-134551009D01*
X197091904Y-134551009D02*
X197187142Y-134598628D01*
X197187142Y-134598628D02*
X197568094Y-134598628D01*
X196520475Y-135074819D02*
X196329999Y-135074819D01*
X196329999Y-135074819D02*
X196234761Y-135027200D01*
X196234761Y-135027200D02*
X196187142Y-134979580D01*
X196187142Y-134979580D02*
X196091904Y-134836723D01*
X196091904Y-134836723D02*
X196044285Y-134646247D01*
X196044285Y-134646247D02*
X196044285Y-134265295D01*
X196044285Y-134265295D02*
X196091904Y-134170057D01*
X196091904Y-134170057D02*
X196139523Y-134122438D01*
X196139523Y-134122438D02*
X196234761Y-134074819D01*
X196234761Y-134074819D02*
X196425237Y-134074819D01*
X196425237Y-134074819D02*
X196520475Y-134122438D01*
X196520475Y-134122438D02*
X196568094Y-134170057D01*
X196568094Y-134170057D02*
X196615713Y-134265295D01*
X196615713Y-134265295D02*
X196615713Y-134503390D01*
X196615713Y-134503390D02*
X196568094Y-134598628D01*
X196568094Y-134598628D02*
X196520475Y-134646247D01*
X196520475Y-134646247D02*
X196425237Y-134693866D01*
X196425237Y-134693866D02*
X196234761Y-134693866D01*
X196234761Y-134693866D02*
X196139523Y-134646247D01*
X196139523Y-134646247D02*
X196091904Y-134598628D01*
X196091904Y-134598628D02*
X196044285Y-134503390D01*
X58996666Y-54584819D02*
X59329999Y-54108628D01*
X59568094Y-54584819D02*
X59568094Y-53584819D01*
X59568094Y-53584819D02*
X59187142Y-53584819D01*
X59187142Y-53584819D02*
X59091904Y-53632438D01*
X59091904Y-53632438D02*
X59044285Y-53680057D01*
X59044285Y-53680057D02*
X58996666Y-53775295D01*
X58996666Y-53775295D02*
X58996666Y-53918152D01*
X58996666Y-53918152D02*
X59044285Y-54013390D01*
X59044285Y-54013390D02*
X59091904Y-54061009D01*
X59091904Y-54061009D02*
X59187142Y-54108628D01*
X59187142Y-54108628D02*
X59568094Y-54108628D01*
X58425237Y-54013390D02*
X58520475Y-53965771D01*
X58520475Y-53965771D02*
X58568094Y-53918152D01*
X58568094Y-53918152D02*
X58615713Y-53822914D01*
X58615713Y-53822914D02*
X58615713Y-53775295D01*
X58615713Y-53775295D02*
X58568094Y-53680057D01*
X58568094Y-53680057D02*
X58520475Y-53632438D01*
X58520475Y-53632438D02*
X58425237Y-53584819D01*
X58425237Y-53584819D02*
X58234761Y-53584819D01*
X58234761Y-53584819D02*
X58139523Y-53632438D01*
X58139523Y-53632438D02*
X58091904Y-53680057D01*
X58091904Y-53680057D02*
X58044285Y-53775295D01*
X58044285Y-53775295D02*
X58044285Y-53822914D01*
X58044285Y-53822914D02*
X58091904Y-53918152D01*
X58091904Y-53918152D02*
X58139523Y-53965771D01*
X58139523Y-53965771D02*
X58234761Y-54013390D01*
X58234761Y-54013390D02*
X58425237Y-54013390D01*
X58425237Y-54013390D02*
X58520475Y-54061009D01*
X58520475Y-54061009D02*
X58568094Y-54108628D01*
X58568094Y-54108628D02*
X58615713Y-54203866D01*
X58615713Y-54203866D02*
X58615713Y-54394342D01*
X58615713Y-54394342D02*
X58568094Y-54489580D01*
X58568094Y-54489580D02*
X58520475Y-54537200D01*
X58520475Y-54537200D02*
X58425237Y-54584819D01*
X58425237Y-54584819D02*
X58234761Y-54584819D01*
X58234761Y-54584819D02*
X58139523Y-54537200D01*
X58139523Y-54537200D02*
X58091904Y-54489580D01*
X58091904Y-54489580D02*
X58044285Y-54394342D01*
X58044285Y-54394342D02*
X58044285Y-54203866D01*
X58044285Y-54203866D02*
X58091904Y-54108628D01*
X58091904Y-54108628D02*
X58139523Y-54061009D01*
X58139523Y-54061009D02*
X58234761Y-54013390D01*
X59166666Y-124584819D02*
X59499999Y-124108628D01*
X59738094Y-124584819D02*
X59738094Y-123584819D01*
X59738094Y-123584819D02*
X59357142Y-123584819D01*
X59357142Y-123584819D02*
X59261904Y-123632438D01*
X59261904Y-123632438D02*
X59214285Y-123680057D01*
X59214285Y-123680057D02*
X59166666Y-123775295D01*
X59166666Y-123775295D02*
X59166666Y-123918152D01*
X59166666Y-123918152D02*
X59214285Y-124013390D01*
X59214285Y-124013390D02*
X59261904Y-124061009D01*
X59261904Y-124061009D02*
X59357142Y-124108628D01*
X59357142Y-124108628D02*
X59738094Y-124108628D01*
X58833332Y-123584819D02*
X58166666Y-123584819D01*
X58166666Y-123584819D02*
X58595237Y-124584819D01*
X58166666Y-89584819D02*
X58499999Y-89108628D01*
X58738094Y-89584819D02*
X58738094Y-88584819D01*
X58738094Y-88584819D02*
X58357142Y-88584819D01*
X58357142Y-88584819D02*
X58261904Y-88632438D01*
X58261904Y-88632438D02*
X58214285Y-88680057D01*
X58214285Y-88680057D02*
X58166666Y-88775295D01*
X58166666Y-88775295D02*
X58166666Y-88918152D01*
X58166666Y-88918152D02*
X58214285Y-89013390D01*
X58214285Y-89013390D02*
X58261904Y-89061009D01*
X58261904Y-89061009D02*
X58357142Y-89108628D01*
X58357142Y-89108628D02*
X58738094Y-89108628D01*
X57309523Y-88584819D02*
X57499999Y-88584819D01*
X57499999Y-88584819D02*
X57595237Y-88632438D01*
X57595237Y-88632438D02*
X57642856Y-88680057D01*
X57642856Y-88680057D02*
X57738094Y-88822914D01*
X57738094Y-88822914D02*
X57785713Y-89013390D01*
X57785713Y-89013390D02*
X57785713Y-89394342D01*
X57785713Y-89394342D02*
X57738094Y-89489580D01*
X57738094Y-89489580D02*
X57690475Y-89537200D01*
X57690475Y-89537200D02*
X57595237Y-89584819D01*
X57595237Y-89584819D02*
X57404761Y-89584819D01*
X57404761Y-89584819D02*
X57309523Y-89537200D01*
X57309523Y-89537200D02*
X57261904Y-89489580D01*
X57261904Y-89489580D02*
X57214285Y-89394342D01*
X57214285Y-89394342D02*
X57214285Y-89156247D01*
X57214285Y-89156247D02*
X57261904Y-89061009D01*
X57261904Y-89061009D02*
X57309523Y-89013390D01*
X57309523Y-89013390D02*
X57404761Y-88965771D01*
X57404761Y-88965771D02*
X57595237Y-88965771D01*
X57595237Y-88965771D02*
X57690475Y-89013390D01*
X57690475Y-89013390D02*
X57738094Y-89061009D01*
X57738094Y-89061009D02*
X57785713Y-89156247D01*
X47334580Y-107028333D02*
X47382200Y-106980714D01*
X47382200Y-106980714D02*
X47429819Y-106837857D01*
X47429819Y-106837857D02*
X47429819Y-106742619D01*
X47429819Y-106742619D02*
X47382200Y-106599762D01*
X47382200Y-106599762D02*
X47286961Y-106504524D01*
X47286961Y-106504524D02*
X47191723Y-106456905D01*
X47191723Y-106456905D02*
X47001247Y-106409286D01*
X47001247Y-106409286D02*
X46858390Y-106409286D01*
X46858390Y-106409286D02*
X46667914Y-106456905D01*
X46667914Y-106456905D02*
X46572676Y-106504524D01*
X46572676Y-106504524D02*
X46477438Y-106599762D01*
X46477438Y-106599762D02*
X46429819Y-106742619D01*
X46429819Y-106742619D02*
X46429819Y-106837857D01*
X46429819Y-106837857D02*
X46477438Y-106980714D01*
X46477438Y-106980714D02*
X46525057Y-107028333D01*
X46763152Y-107885476D02*
X47429819Y-107885476D01*
X46382200Y-107647381D02*
X47096485Y-107409286D01*
X47096485Y-107409286D02*
X47096485Y-108028333D01*
X177166666Y-78359580D02*
X177214285Y-78407200D01*
X177214285Y-78407200D02*
X177357142Y-78454819D01*
X177357142Y-78454819D02*
X177452380Y-78454819D01*
X177452380Y-78454819D02*
X177595237Y-78407200D01*
X177595237Y-78407200D02*
X177690475Y-78311961D01*
X177690475Y-78311961D02*
X177738094Y-78216723D01*
X177738094Y-78216723D02*
X177785713Y-78026247D01*
X177785713Y-78026247D02*
X177785713Y-77883390D01*
X177785713Y-77883390D02*
X177738094Y-77692914D01*
X177738094Y-77692914D02*
X177690475Y-77597676D01*
X177690475Y-77597676D02*
X177595237Y-77502438D01*
X177595237Y-77502438D02*
X177452380Y-77454819D01*
X177452380Y-77454819D02*
X177357142Y-77454819D01*
X177357142Y-77454819D02*
X177214285Y-77502438D01*
X177214285Y-77502438D02*
X177166666Y-77550057D01*
X176833332Y-77454819D02*
X176214285Y-77454819D01*
X176214285Y-77454819D02*
X176547618Y-77835771D01*
X176547618Y-77835771D02*
X176404761Y-77835771D01*
X176404761Y-77835771D02*
X176309523Y-77883390D01*
X176309523Y-77883390D02*
X176261904Y-77931009D01*
X176261904Y-77931009D02*
X176214285Y-78026247D01*
X176214285Y-78026247D02*
X176214285Y-78264342D01*
X176214285Y-78264342D02*
X176261904Y-78359580D01*
X176261904Y-78359580D02*
X176309523Y-78407200D01*
X176309523Y-78407200D02*
X176404761Y-78454819D01*
X176404761Y-78454819D02*
X176690475Y-78454819D01*
X176690475Y-78454819D02*
X176785713Y-78407200D01*
X176785713Y-78407200D02*
X176833332Y-78359580D01*
X56359580Y-135583333D02*
X56407200Y-135535714D01*
X56407200Y-135535714D02*
X56454819Y-135392857D01*
X56454819Y-135392857D02*
X56454819Y-135297619D01*
X56454819Y-135297619D02*
X56407200Y-135154762D01*
X56407200Y-135154762D02*
X56311961Y-135059524D01*
X56311961Y-135059524D02*
X56216723Y-135011905D01*
X56216723Y-135011905D02*
X56026247Y-134964286D01*
X56026247Y-134964286D02*
X55883390Y-134964286D01*
X55883390Y-134964286D02*
X55692914Y-135011905D01*
X55692914Y-135011905D02*
X55597676Y-135059524D01*
X55597676Y-135059524D02*
X55502438Y-135154762D01*
X55502438Y-135154762D02*
X55454819Y-135297619D01*
X55454819Y-135297619D02*
X55454819Y-135392857D01*
X55454819Y-135392857D02*
X55502438Y-135535714D01*
X55502438Y-135535714D02*
X55550057Y-135583333D01*
X55550057Y-135964286D02*
X55502438Y-136011905D01*
X55502438Y-136011905D02*
X55454819Y-136107143D01*
X55454819Y-136107143D02*
X55454819Y-136345238D01*
X55454819Y-136345238D02*
X55502438Y-136440476D01*
X55502438Y-136440476D02*
X55550057Y-136488095D01*
X55550057Y-136488095D02*
X55645295Y-136535714D01*
X55645295Y-136535714D02*
X55740533Y-136535714D01*
X55740533Y-136535714D02*
X55883390Y-136488095D01*
X55883390Y-136488095D02*
X56454819Y-135916667D01*
X56454819Y-135916667D02*
X56454819Y-136535714D01*
X50359580Y-70583333D02*
X50407200Y-70535714D01*
X50407200Y-70535714D02*
X50454819Y-70392857D01*
X50454819Y-70392857D02*
X50454819Y-70297619D01*
X50454819Y-70297619D02*
X50407200Y-70154762D01*
X50407200Y-70154762D02*
X50311961Y-70059524D01*
X50311961Y-70059524D02*
X50216723Y-70011905D01*
X50216723Y-70011905D02*
X50026247Y-69964286D01*
X50026247Y-69964286D02*
X49883390Y-69964286D01*
X49883390Y-69964286D02*
X49692914Y-70011905D01*
X49692914Y-70011905D02*
X49597676Y-70059524D01*
X49597676Y-70059524D02*
X49502438Y-70154762D01*
X49502438Y-70154762D02*
X49454819Y-70297619D01*
X49454819Y-70297619D02*
X49454819Y-70392857D01*
X49454819Y-70392857D02*
X49502438Y-70535714D01*
X49502438Y-70535714D02*
X49550057Y-70583333D01*
X50454819Y-71535714D02*
X50454819Y-70964286D01*
X50454819Y-71250000D02*
X49454819Y-71250000D01*
X49454819Y-71250000D02*
X49597676Y-71154762D01*
X49597676Y-71154762D02*
X49692914Y-71059524D01*
X49692914Y-71059524D02*
X49740533Y-70964286D01*
X187409104Y-90165714D02*
X187409104Y-90641904D01*
X187694819Y-90070476D02*
X186694819Y-90403809D01*
X186694819Y-90403809D02*
X187694819Y-90737142D01*
X187694819Y-91594285D02*
X187694819Y-91022857D01*
X187694819Y-91308571D02*
X186694819Y-91308571D01*
X186694819Y-91308571D02*
X186837676Y-91213333D01*
X186837676Y-91213333D02*
X186932914Y-91118095D01*
X186932914Y-91118095D02*
X186980533Y-91022857D01*
X147145180Y-92141904D02*
X146335657Y-92141904D01*
X146335657Y-92141904D02*
X146240419Y-92094285D01*
X146240419Y-92094285D02*
X146192800Y-92046666D01*
X146192800Y-92046666D02*
X146145180Y-91951428D01*
X146145180Y-91951428D02*
X146145180Y-91760952D01*
X146145180Y-91760952D02*
X146192800Y-91665714D01*
X146192800Y-91665714D02*
X146240419Y-91618095D01*
X146240419Y-91618095D02*
X146335657Y-91570476D01*
X146335657Y-91570476D02*
X147145180Y-91570476D01*
X146192800Y-91141904D02*
X146145180Y-90999047D01*
X146145180Y-90999047D02*
X146145180Y-90760952D01*
X146145180Y-90760952D02*
X146192800Y-90665714D01*
X146192800Y-90665714D02*
X146240419Y-90618095D01*
X146240419Y-90618095D02*
X146335657Y-90570476D01*
X146335657Y-90570476D02*
X146430895Y-90570476D01*
X146430895Y-90570476D02*
X146526133Y-90618095D01*
X146526133Y-90618095D02*
X146573752Y-90665714D01*
X146573752Y-90665714D02*
X146621371Y-90760952D01*
X146621371Y-90760952D02*
X146668990Y-90951428D01*
X146668990Y-90951428D02*
X146716609Y-91046666D01*
X146716609Y-91046666D02*
X146764228Y-91094285D01*
X146764228Y-91094285D02*
X146859466Y-91141904D01*
X146859466Y-91141904D02*
X146954704Y-91141904D01*
X146954704Y-91141904D02*
X147049942Y-91094285D01*
X147049942Y-91094285D02*
X147097561Y-91046666D01*
X147097561Y-91046666D02*
X147145180Y-90951428D01*
X147145180Y-90951428D02*
X147145180Y-90713333D01*
X147145180Y-90713333D02*
X147097561Y-90570476D01*
X146668990Y-89808571D02*
X146621371Y-89665714D01*
X146621371Y-89665714D02*
X146573752Y-89618095D01*
X146573752Y-89618095D02*
X146478514Y-89570476D01*
X146478514Y-89570476D02*
X146335657Y-89570476D01*
X146335657Y-89570476D02*
X146240419Y-89618095D01*
X146240419Y-89618095D02*
X146192800Y-89665714D01*
X146192800Y-89665714D02*
X146145180Y-89760952D01*
X146145180Y-89760952D02*
X146145180Y-90141904D01*
X146145180Y-90141904D02*
X147145180Y-90141904D01*
X147145180Y-90141904D02*
X147145180Y-89808571D01*
X147145180Y-89808571D02*
X147097561Y-89713333D01*
X147097561Y-89713333D02*
X147049942Y-89665714D01*
X147049942Y-89665714D02*
X146954704Y-89618095D01*
X146954704Y-89618095D02*
X146859466Y-89618095D01*
X146859466Y-89618095D02*
X146764228Y-89665714D01*
X146764228Y-89665714D02*
X146716609Y-89713333D01*
X146716609Y-89713333D02*
X146668990Y-89808571D01*
X146668990Y-89808571D02*
X146668990Y-90141904D01*
X76916666Y-135074819D02*
X77249999Y-134598628D01*
X77488094Y-135074819D02*
X77488094Y-134074819D01*
X77488094Y-134074819D02*
X77107142Y-134074819D01*
X77107142Y-134074819D02*
X77011904Y-134122438D01*
X77011904Y-134122438D02*
X76964285Y-134170057D01*
X76964285Y-134170057D02*
X76916666Y-134265295D01*
X76916666Y-134265295D02*
X76916666Y-134408152D01*
X76916666Y-134408152D02*
X76964285Y-134503390D01*
X76964285Y-134503390D02*
X77011904Y-134551009D01*
X77011904Y-134551009D02*
X77107142Y-134598628D01*
X77107142Y-134598628D02*
X77488094Y-134598628D01*
X76535713Y-134170057D02*
X76488094Y-134122438D01*
X76488094Y-134122438D02*
X76392856Y-134074819D01*
X76392856Y-134074819D02*
X76154761Y-134074819D01*
X76154761Y-134074819D02*
X76059523Y-134122438D01*
X76059523Y-134122438D02*
X76011904Y-134170057D01*
X76011904Y-134170057D02*
X75964285Y-134265295D01*
X75964285Y-134265295D02*
X75964285Y-134360533D01*
X75964285Y-134360533D02*
X76011904Y-134503390D01*
X76011904Y-134503390D02*
X76583332Y-135074819D01*
X76583332Y-135074819D02*
X75964285Y-135074819D01*
X136586666Y-48334819D02*
X136919999Y-47858628D01*
X137158094Y-48334819D02*
X137158094Y-47334819D01*
X137158094Y-47334819D02*
X136777142Y-47334819D01*
X136777142Y-47334819D02*
X136681904Y-47382438D01*
X136681904Y-47382438D02*
X136634285Y-47430057D01*
X136634285Y-47430057D02*
X136586666Y-47525295D01*
X136586666Y-47525295D02*
X136586666Y-47668152D01*
X136586666Y-47668152D02*
X136634285Y-47763390D01*
X136634285Y-47763390D02*
X136681904Y-47811009D01*
X136681904Y-47811009D02*
X136777142Y-47858628D01*
X136777142Y-47858628D02*
X137158094Y-47858628D01*
X135729523Y-47668152D02*
X135729523Y-48334819D01*
X135967618Y-47287200D02*
X136205713Y-48001485D01*
X136205713Y-48001485D02*
X135586666Y-48001485D01*
X136916666Y-135574819D02*
X137249999Y-135098628D01*
X137488094Y-135574819D02*
X137488094Y-134574819D01*
X137488094Y-134574819D02*
X137107142Y-134574819D01*
X137107142Y-134574819D02*
X137011904Y-134622438D01*
X137011904Y-134622438D02*
X136964285Y-134670057D01*
X136964285Y-134670057D02*
X136916666Y-134765295D01*
X136916666Y-134765295D02*
X136916666Y-134908152D01*
X136916666Y-134908152D02*
X136964285Y-135003390D01*
X136964285Y-135003390D02*
X137011904Y-135051009D01*
X137011904Y-135051009D02*
X137107142Y-135098628D01*
X137107142Y-135098628D02*
X137488094Y-135098628D01*
X136583332Y-134574819D02*
X135964285Y-134574819D01*
X135964285Y-134574819D02*
X136297618Y-134955771D01*
X136297618Y-134955771D02*
X136154761Y-134955771D01*
X136154761Y-134955771D02*
X136059523Y-135003390D01*
X136059523Y-135003390D02*
X136011904Y-135051009D01*
X136011904Y-135051009D02*
X135964285Y-135146247D01*
X135964285Y-135146247D02*
X135964285Y-135384342D01*
X135964285Y-135384342D02*
X136011904Y-135479580D01*
X136011904Y-135479580D02*
X136059523Y-135527200D01*
X136059523Y-135527200D02*
X136154761Y-135574819D01*
X136154761Y-135574819D02*
X136440475Y-135574819D01*
X136440475Y-135574819D02*
X136535713Y-135527200D01*
X136535713Y-135527200D02*
X136583332Y-135479580D01*
D10*
X209891904Y-102145591D02*
X209891904Y-102955114D01*
X209891904Y-102955114D02*
X209844285Y-103050352D01*
X209844285Y-103050352D02*
X209796666Y-103097972D01*
X209796666Y-103097972D02*
X209701428Y-103145591D01*
X209701428Y-103145591D02*
X209510952Y-103145591D01*
X209510952Y-103145591D02*
X209415714Y-103097972D01*
X209415714Y-103097972D02*
X209368095Y-103050352D01*
X209368095Y-103050352D02*
X209320476Y-102955114D01*
X209320476Y-102955114D02*
X209320476Y-102145591D01*
X208368095Y-102145591D02*
X208844285Y-102145591D01*
X208844285Y-102145591D02*
X208891904Y-102621781D01*
X208891904Y-102621781D02*
X208844285Y-102574162D01*
X208844285Y-102574162D02*
X208749047Y-102526543D01*
X208749047Y-102526543D02*
X208510952Y-102526543D01*
X208510952Y-102526543D02*
X208415714Y-102574162D01*
X208415714Y-102574162D02*
X208368095Y-102621781D01*
X208368095Y-102621781D02*
X208320476Y-102717019D01*
X208320476Y-102717019D02*
X208320476Y-102955114D01*
X208320476Y-102955114D02*
X208368095Y-103050352D01*
X208368095Y-103050352D02*
X208415714Y-103097972D01*
X208415714Y-103097972D02*
X208510952Y-103145591D01*
X208510952Y-103145591D02*
X208749047Y-103145591D01*
X208749047Y-103145591D02*
X208844285Y-103097972D01*
X208844285Y-103097972D02*
X208891904Y-103050352D01*
D11*
X179424819Y-113166666D02*
X180139104Y-113166666D01*
X180139104Y-113166666D02*
X180281961Y-113119047D01*
X180281961Y-113119047D02*
X180377200Y-113023809D01*
X180377200Y-113023809D02*
X180424819Y-112880952D01*
X180424819Y-112880952D02*
X180424819Y-112785714D01*
X180424819Y-114166666D02*
X180424819Y-113595238D01*
X180424819Y-113880952D02*
X179424819Y-113880952D01*
X179424819Y-113880952D02*
X179567676Y-113785714D01*
X179567676Y-113785714D02*
X179662914Y-113690476D01*
X179662914Y-113690476D02*
X179710533Y-113595238D01*
X76416666Y-44334819D02*
X76749999Y-43858628D01*
X76988094Y-44334819D02*
X76988094Y-43334819D01*
X76988094Y-43334819D02*
X76607142Y-43334819D01*
X76607142Y-43334819D02*
X76511904Y-43382438D01*
X76511904Y-43382438D02*
X76464285Y-43430057D01*
X76464285Y-43430057D02*
X76416666Y-43525295D01*
X76416666Y-43525295D02*
X76416666Y-43668152D01*
X76416666Y-43668152D02*
X76464285Y-43763390D01*
X76464285Y-43763390D02*
X76511904Y-43811009D01*
X76511904Y-43811009D02*
X76607142Y-43858628D01*
X76607142Y-43858628D02*
X76988094Y-43858628D01*
X75464285Y-44334819D02*
X76035713Y-44334819D01*
X75749999Y-44334819D02*
X75749999Y-43334819D01*
X75749999Y-43334819D02*
X75845237Y-43477676D01*
X75845237Y-43477676D02*
X75940475Y-43572914D01*
X75940475Y-43572914D02*
X76035713Y-43620533D01*
X208586666Y-96772991D02*
X208919999Y-96296800D01*
X209158094Y-96772991D02*
X209158094Y-95772991D01*
X209158094Y-95772991D02*
X208777142Y-95772991D01*
X208777142Y-95772991D02*
X208681904Y-95820610D01*
X208681904Y-95820610D02*
X208634285Y-95868229D01*
X208634285Y-95868229D02*
X208586666Y-95963467D01*
X208586666Y-95963467D02*
X208586666Y-96106324D01*
X208586666Y-96106324D02*
X208634285Y-96201562D01*
X208634285Y-96201562D02*
X208681904Y-96249181D01*
X208681904Y-96249181D02*
X208777142Y-96296800D01*
X208777142Y-96296800D02*
X209158094Y-96296800D01*
X207681904Y-95772991D02*
X208158094Y-95772991D01*
X208158094Y-95772991D02*
X208205713Y-96249181D01*
X208205713Y-96249181D02*
X208158094Y-96201562D01*
X208158094Y-96201562D02*
X208062856Y-96153943D01*
X208062856Y-96153943D02*
X207824761Y-96153943D01*
X207824761Y-96153943D02*
X207729523Y-96201562D01*
X207729523Y-96201562D02*
X207681904Y-96249181D01*
X207681904Y-96249181D02*
X207634285Y-96344419D01*
X207634285Y-96344419D02*
X207634285Y-96582514D01*
X207634285Y-96582514D02*
X207681904Y-96677752D01*
X207681904Y-96677752D02*
X207729523Y-96725372D01*
X207729523Y-96725372D02*
X207824761Y-96772991D01*
X207824761Y-96772991D02*
X208062856Y-96772991D01*
X208062856Y-96772991D02*
X208158094Y-96725372D01*
X208158094Y-96725372D02*
X208205713Y-96677752D01*
D12*
%TO.C,R10*%
X199770000Y-50750000D02*
X200540000Y-50750000D01*
X199770000Y-52120000D02*
X199770000Y-49380000D01*
X193230000Y-52120000D02*
X199770000Y-52120000D01*
X199770000Y-49380000D02*
X193230000Y-49380000D01*
X193230000Y-49380000D02*
X193230000Y-52120000D01*
X193230000Y-50750000D02*
X192460000Y-50750000D01*
%TO.C,R9*%
X193560000Y-132250000D02*
X192790000Y-132250000D01*
X193560000Y-130880000D02*
X193560000Y-133620000D01*
X200100000Y-130880000D02*
X193560000Y-130880000D01*
X193560000Y-133620000D02*
X200100000Y-133620000D01*
X200100000Y-133620000D02*
X200100000Y-130880000D01*
X200100000Y-132250000D02*
X200870000Y-132250000D01*
%TO.C,R8*%
X62100000Y-56500000D02*
X62870000Y-56500000D01*
X62100000Y-57870000D02*
X62100000Y-55130000D01*
X55560000Y-57870000D02*
X62100000Y-57870000D01*
X62100000Y-55130000D02*
X55560000Y-55130000D01*
X55560000Y-55130000D02*
X55560000Y-57870000D01*
X55560000Y-56500000D02*
X54790000Y-56500000D01*
%TO.C,R7*%
X55730000Y-126500000D02*
X54960000Y-126500000D01*
X55730000Y-125130000D02*
X55730000Y-127870000D01*
X62270000Y-125130000D02*
X55730000Y-125130000D01*
X55730000Y-127870000D02*
X62270000Y-127870000D01*
X62270000Y-127870000D02*
X62270000Y-125130000D01*
X62270000Y-126500000D02*
X63040000Y-126500000D01*
%TO.C,R6*%
X54730000Y-91500000D02*
X53960000Y-91500000D01*
X54730000Y-90130000D02*
X54730000Y-92870000D01*
X61270000Y-90130000D02*
X54730000Y-90130000D01*
X54730000Y-92870000D02*
X61270000Y-92870000D01*
X61270000Y-92870000D02*
X61270000Y-90130000D01*
X61270000Y-91500000D02*
X62040000Y-91500000D01*
%TO.C,C4*%
X49360000Y-104672738D02*
X49360000Y-104122738D01*
X49635000Y-104397738D02*
X49085000Y-104397738D01*
X49915000Y-109862077D02*
G75*
G02*
X49915000Y-104527923I1060000J2667077D01*
G01*
X52035000Y-104527923D02*
G75*
G02*
X52035000Y-109862077I-1060000J-2667077D01*
G01*
%TO.C,C3*%
X174477738Y-75615000D02*
X173927738Y-75615000D01*
X174202738Y-75340000D02*
X174202738Y-75890000D01*
X179667077Y-75060000D02*
G75*
G02*
X174332923Y-75060000I-2667077J1060000D01*
G01*
X174332923Y-72940000D02*
G75*
G02*
X179667077Y-72940000I2667077J-1060000D01*
G01*
%TO.C,C2*%
X58385000Y-133227738D02*
X58385000Y-132677738D01*
X58660000Y-132952738D02*
X58110000Y-132952738D01*
X58940000Y-138417077D02*
G75*
G02*
X58940000Y-133082923I1060000J2667077D01*
G01*
X61060000Y-133082923D02*
G75*
G02*
X61060000Y-138417077I-1060000J-2667077D01*
G01*
%TO.C,C1*%
X52385000Y-68227738D02*
X52385000Y-67677738D01*
X52660000Y-67952738D02*
X52110000Y-67952738D01*
X52940000Y-73417077D02*
G75*
G02*
X52940000Y-68082923I1060000J2667077D01*
G01*
X55060000Y-68082923D02*
G75*
G02*
X55060000Y-73417077I-1060000J-2667077D01*
G01*
%TO.C,A1*%
X140120000Y-86940000D02*
X150540000Y-86940000D01*
X140120000Y-94820000D02*
X140120000Y-86940000D01*
X142660000Y-86940000D02*
X142660000Y-81860000D01*
X142660000Y-94820000D02*
X142660000Y-99900000D01*
X142660000Y-99900000D02*
X180890000Y-99900000D01*
X145330000Y-81860000D02*
X145330000Y-84530000D01*
X145330000Y-84530000D02*
X183430000Y-84530000D01*
X145330000Y-97230000D02*
X180890000Y-97230000D01*
X145330000Y-99900000D02*
X145330000Y-97230000D01*
X150540000Y-86940000D02*
X150540000Y-94820000D01*
X150540000Y-94820000D02*
X140120000Y-94820000D01*
X180890000Y-99900000D02*
X180890000Y-97230000D01*
X183430000Y-81860000D02*
X183430000Y-84530000D01*
X183430000Y-97230000D02*
X180890000Y-97230000D01*
X183430000Y-99900000D02*
X183430000Y-97230000D01*
X183430000Y-99900000D02*
X186100000Y-99900000D01*
X186100000Y-81860000D02*
X142660000Y-81860000D01*
X186100000Y-99900000D02*
X186100000Y-81860000D01*
%TO.C,R2*%
X80020000Y-133620000D02*
X80020000Y-130880000D01*
X80020000Y-132250000D02*
X80790000Y-132250000D01*
X80020000Y-130880000D02*
X73480000Y-130880000D01*
X73480000Y-133620000D02*
X80020000Y-133620000D01*
X73480000Y-132250000D02*
X72710000Y-132250000D01*
X73480000Y-130880000D02*
X73480000Y-133620000D01*
%TO.C,R4*%
X133150000Y-51620000D02*
X139690000Y-51620000D01*
X139690000Y-51620000D02*
X139690000Y-48880000D01*
X133150000Y-50250000D02*
X132380000Y-50250000D01*
X139690000Y-50250000D02*
X140460000Y-50250000D01*
X133150000Y-48880000D02*
X133150000Y-51620000D01*
X139690000Y-48880000D02*
X133150000Y-48880000D01*
%TO.C,R3*%
X133480000Y-134120000D02*
X140020000Y-134120000D01*
X140020000Y-134120000D02*
X140020000Y-131380000D01*
X133480000Y-132750000D02*
X132710000Y-132750000D01*
X140020000Y-132750000D02*
X140790000Y-132750000D01*
X133480000Y-131380000D02*
X133480000Y-134120000D01*
X140020000Y-131380000D02*
X133480000Y-131380000D01*
D10*
%TO.C,U5*%
X214366344Y-113348172D02*
G75*
G02*
X203893656Y-113348172I-5236344J0D01*
G01*
X203893656Y-113348172D02*
G75*
G02*
X214366344Y-113348172I5236344J0D01*
G01*
D12*
%TO.C,J1*%
X160630000Y-112170000D02*
X160630000Y-114830000D01*
X160630000Y-112170000D02*
X175930000Y-112170000D01*
X160630000Y-114830000D02*
X175930000Y-114830000D01*
X175930000Y-112170000D02*
X175930000Y-114830000D01*
X177200000Y-112170000D02*
X178530000Y-112170000D01*
X178530000Y-112170000D02*
X178530000Y-113500000D01*
%TO.C,R1*%
X79520000Y-47620000D02*
X79520000Y-44880000D01*
X79520000Y-46250000D02*
X80290000Y-46250000D01*
X79520000Y-44880000D02*
X72980000Y-44880000D01*
X72980000Y-47620000D02*
X79520000Y-47620000D01*
X72980000Y-46250000D02*
X72210000Y-46250000D01*
X72980000Y-44880000D02*
X72980000Y-47620000D01*
%TO.C,R5*%
X205150000Y-97318172D02*
X205150000Y-100058172D01*
X205150000Y-98688172D02*
X204380000Y-98688172D01*
X205150000Y-100058172D02*
X211690000Y-100058172D01*
X211690000Y-97318172D02*
X205150000Y-97318172D01*
X211690000Y-98688172D02*
X212460000Y-98688172D01*
X211690000Y-100058172D02*
X211690000Y-97318172D01*
%TD*%
M02*
