M48
; DRILL file {KiCad 8.0.3} date 2024-11-03T12:34:42-0500
; FORMAT={-:-/ absolute / inch / decimal}
; #@! TF.CreationDate,2024-11-03T12:34:42-05:00
; #@! TF.GenerationSoftware,Kicad,Pcbnew,8.0.3
; #@! TF.FileFunction,Plated,1,2,PTH
FMAT,2
INCH
; #@! TA.AperFunction,Plated,PTH,ViaDrill
T1C0.0118
; #@! TA.AperFunction,Plated,PTH,ComponentDrill
T2C0.0315
; #@! TA.AperFunction,Plated,PTH,ComponentDrill
T3C0.0394
; #@! TA.AperFunction,Plated,PTH,ComponentDrill
T4C0.0472
%
G90
G05
T1
X2.5197Y-2.9528
X2.6772Y-1.9783
X2.6772Y-2.3228
X2.6772Y-4.124
X2.6772Y-5.0787
X2.815Y-4.0157
X3.1988Y-4.0945
X4.8622Y-4.3898
X4.8622Y-4.9803
X4.8622Y-4.9803
X5.1673Y-2.7953
X5.1772Y-4.5669
X5.5709Y-3.7598
X5.7677Y-2.9528
X5.7677Y-4.3898
X5.876Y-3.6024
X5.9717Y-3.7669
X6.063Y-3.4449
X6.063Y-4.0354
X6.1614Y-4.5669
X6.1713Y-2.1555
X6.2697Y-4.0945
X6.8701Y-5.2165
X6.8701Y-2.0079
X6.8701Y-2.7953
X6.8898Y-3.622
X6.8898Y-4.1732
X7.4213Y-3.622
X7.4213Y-4.1732
X7.5591Y-3.4646
X7.9331Y-2.1457
X8.4252Y-2.8315
T2
X2.0069Y-4.1219
X2.0069Y-4.3187
X2.0835Y-3.6024
X2.1161Y-2.2244
X2.1228Y-4.9803
X2.126Y-2.687
X2.126Y-2.8839
X2.3622Y-5.2461
X2.3622Y-5.4429
X2.4835Y-3.6024
X2.5161Y-2.2244
X2.5228Y-4.9803
X2.802Y-1.8209
X2.8217Y-5.2067
X3.202Y-1.8209
X3.2217Y-5.2067
X5.1709Y-1.9783
X5.1839Y-5.2264
X5.5709Y-1.9783
X5.5839Y-5.2264
X6.8701Y-2.9134
X7.0669Y-2.9134
X7.5362Y-1.998
X7.5492Y-5.2067
X7.9362Y-1.998
X7.9492Y-5.2067
X8.0055Y-3.8854
X8.4055Y-3.8854
T3
X1.8297Y-3.5018
X1.8297Y-3.6018
X1.8297Y-3.7018
X1.8307Y-2.126
X1.8307Y-2.226
X1.8307Y-2.326
X1.8307Y-4.8819
X1.8307Y-4.9819
X1.8307Y-5.0819
X5.7717Y-3.278
X5.7717Y-3.878
X5.8717Y-3.278
X5.8717Y-3.878
X5.9717Y-3.278
X5.9717Y-3.878
X6.0717Y-3.278
X6.0717Y-3.878
X6.1717Y-3.278
X6.1717Y-3.878
X6.2717Y-3.278
X6.2717Y-3.878
X6.3717Y-3.278
X6.3717Y-3.878
X6.3764Y-4.4685
X6.4717Y-3.278
X6.4717Y-3.878
X6.4764Y-4.4685
X6.5717Y-3.278
X6.5717Y-3.878
X6.5764Y-4.4685
X6.6717Y-3.278
X6.6717Y-3.878
X6.6764Y-4.4685
X6.7717Y-3.278
X6.7717Y-3.878
X6.7764Y-4.4685
X6.8717Y-3.278
X6.8717Y-3.878
X6.8764Y-4.4685
X6.9717Y-3.278
X6.9717Y-3.878
X6.9764Y-4.4685
X7.0717Y-3.278
X7.0717Y-3.878
X7.1717Y-3.278
X7.1717Y-3.878
T4
X2.8114Y-1.6142
X2.8172Y-5.561
X3.0083Y-1.6142
X3.0141Y-5.561
X3.2051Y-1.6142
X3.2109Y-5.561
X5.1772Y-1.6142
X5.1772Y-5.5566
X5.374Y-1.6142
X5.374Y-5.5566
X5.5709Y-1.6142
X5.5709Y-5.5566
X7.5394Y-1.6142
X7.5394Y-5.5512
X7.7362Y-1.6142
X7.7362Y-5.5512
X7.9331Y-1.6142
X7.9331Y-5.5512
X8.1335Y-4.4625
X8.3335Y-4.4625
M30
