M48
; DRILL file {KiCad 8.0.3} date 2024-11-03T11:14:30-0500
; FORMAT={-:-/ absolute / inch / decimal}
; #@! TF.CreationDate,2024-11-03T11:14:30-05:00
; #@! TF.GenerationSoftware,Kicad,Pcbnew,8.0.3
; #@! TF.FileFunction,Plated,1,2,PTH
FMAT,2
INCH
; #@! TA.AperFunction,Plated,PTH,ViaDrill
T1C0.0118
; #@! TA.AperFunction,Plated,PTH,ComponentDrill
T2C0.0315
; #@! TA.AperFunction,Plated,PTH,ComponentDrill
T3C0.0394
; #@! TA.AperFunction,Plated,PTH,ComponentDrill
T4C0.0472
%
G90
G05
T1
X2.5197Y-2.9528
X2.5984Y-2.3228
X2.5984Y-3.7992
X2.5984Y-5.0787
X2.6083Y-1.9783
X4.8622Y-4.3898
X4.8622Y-4.9803
X4.8622Y-4.9803
X4.9409Y-3.4055
X4.9409Y-4.0354
X5.1673Y-2.7953
X5.1772Y-4.5669
X5.5709Y-3.6024
X5.7677Y-2.9528
X5.7677Y-4.3898
X5.8858Y-3.4252
X5.9646Y-3.6024
X6.063Y-4.0354
X6.1614Y-4.5669
X6.8701Y-5.2165
X6.8701Y-2.7953
X6.8898Y-3.622
X6.8898Y-4.1732
X7.4213Y-3.622
X7.4213Y-4.1732
X8.1102Y-3.4252
X8.4252Y-2.8315
T2
X2.1031Y-4.9803
X2.1161Y-2.2244
X2.126Y-2.687
X2.126Y-2.8839
X2.185Y-3.3957
X2.185Y-3.7957
X2.3425Y-5.2461
X2.3425Y-5.4429
X2.5031Y-4.9803
X2.5161Y-2.2244
X5.1709Y-1.9783
X5.1839Y-5.2264
X5.5709Y-1.9783
X5.5839Y-5.2264
X6.8701Y-2.9134
X7.0669Y-2.9134
X7.5756Y-3.878
X7.9756Y-3.878
X8.1071Y-2.9331
X8.5071Y-2.9331
X8.5335Y-3.3992
X8.5335Y-3.7992
X8.5433Y-2.4114
X8.7402Y-2.4114
T3
X1.811Y-4.8819
X1.811Y-4.9819
X1.811Y-5.0819
X1.8307Y-2.126
X1.8307Y-2.226
X1.8307Y-2.326
X5.7717Y-3.278
X5.7717Y-3.878
X5.8717Y-3.278
X5.8717Y-3.878
X5.9717Y-3.278
X5.9717Y-3.878
X6.0717Y-3.278
X6.0717Y-3.878
X6.1717Y-3.278
X6.1717Y-3.878
X6.2717Y-3.278
X6.2717Y-3.878
X6.3717Y-3.278
X6.3717Y-3.878
X6.3764Y-4.4685
X6.4717Y-3.278
X6.4717Y-3.878
X6.4764Y-4.4685
X6.5717Y-3.278
X6.5717Y-3.878
X6.5764Y-4.4685
X6.6717Y-3.278
X6.6717Y-3.878
X6.6764Y-4.4685
X6.7717Y-3.278
X6.7717Y-3.878
X6.7764Y-4.4685
X6.8717Y-3.278
X6.8717Y-3.878
X6.8764Y-4.4685
X6.9717Y-3.278
X6.9717Y-3.878
X6.9764Y-4.4685
X7.0717Y-3.278
X7.0717Y-3.878
X7.1717Y-3.278
X7.1717Y-3.878
X8.9173Y-2.8315
X8.9173Y-2.9315
X8.9173Y-3.0315
T4
X1.8307Y-3.3912
X1.8307Y-3.5881
X1.8307Y-3.7849
X5.1772Y-1.6142
X5.1772Y-5.5566
X5.374Y-1.6142
X5.374Y-5.5566
X5.5709Y-1.6142
X5.5709Y-5.5566
X7.7035Y-4.4551
X7.9035Y-4.4551
X8.9173Y-3.4055
X8.9173Y-3.6024
X8.9173Y-3.7992
M30
