%TF.GenerationSoftware,KiCad,Pcbnew,8.0.3*%
%TF.CreationDate,2024-11-03T12:34:39-05:00*%
%TF.ProjectId,toy,746f792e-6b69-4636-9164-5f7063625858,rev?*%
%TF.SameCoordinates,Original*%
%TF.FileFunction,Legend,Top*%
%TF.FilePolarity,Positive*%
%FSLAX46Y46*%
G04 Gerber Fmt 4.6, Leading zero omitted, Abs format (unit mm)*
G04 Created by KiCad (PCBNEW 8.0.3) date 2024-11-03 12:34:39*
%MOMM*%
%LPD*%
G01*
G04 APERTURE LIST*
%ADD10C,0.500000*%
%ADD11C,0.150000*%
%ADD12C,0.120000*%
G04 APERTURE END LIST*
D10*
X75221804Y-109271955D02*
X75507518Y-109367193D01*
X75507518Y-109367193D02*
X75602756Y-109462431D01*
X75602756Y-109462431D02*
X75697994Y-109652907D01*
X75697994Y-109652907D02*
X75697994Y-109938621D01*
X75697994Y-109938621D02*
X75602756Y-110129097D01*
X75602756Y-110129097D02*
X75507518Y-110224336D01*
X75507518Y-110224336D02*
X75317042Y-110319574D01*
X75317042Y-110319574D02*
X74555137Y-110319574D01*
X74555137Y-110319574D02*
X74555137Y-108319574D01*
X74555137Y-108319574D02*
X75221804Y-108319574D01*
X75221804Y-108319574D02*
X75412280Y-108414812D01*
X75412280Y-108414812D02*
X75507518Y-108510050D01*
X75507518Y-108510050D02*
X75602756Y-108700526D01*
X75602756Y-108700526D02*
X75602756Y-108891002D01*
X75602756Y-108891002D02*
X75507518Y-109081478D01*
X75507518Y-109081478D02*
X75412280Y-109176716D01*
X75412280Y-109176716D02*
X75221804Y-109271955D01*
X75221804Y-109271955D02*
X74555137Y-109271955D01*
X77507518Y-110319574D02*
X76555137Y-110319574D01*
X76555137Y-110319574D02*
X76555137Y-108319574D01*
X78174185Y-110319574D02*
X78174185Y-108319574D01*
X80269423Y-110129097D02*
X80174185Y-110224336D01*
X80174185Y-110224336D02*
X79888471Y-110319574D01*
X79888471Y-110319574D02*
X79697995Y-110319574D01*
X79697995Y-110319574D02*
X79412280Y-110224336D01*
X79412280Y-110224336D02*
X79221804Y-110033859D01*
X79221804Y-110033859D02*
X79126566Y-109843383D01*
X79126566Y-109843383D02*
X79031328Y-109462431D01*
X79031328Y-109462431D02*
X79031328Y-109176716D01*
X79031328Y-109176716D02*
X79126566Y-108795764D01*
X79126566Y-108795764D02*
X79221804Y-108605288D01*
X79221804Y-108605288D02*
X79412280Y-108414812D01*
X79412280Y-108414812D02*
X79697995Y-108319574D01*
X79697995Y-108319574D02*
X79888471Y-108319574D01*
X79888471Y-108319574D02*
X80174185Y-108414812D01*
X80174185Y-108414812D02*
X80269423Y-108510050D01*
X81126566Y-110319574D02*
X81126566Y-108319574D01*
X82269423Y-110319574D02*
X81412280Y-109176716D01*
X82269423Y-108319574D02*
X81126566Y-109462431D01*
X83126566Y-109271955D02*
X83793233Y-109271955D01*
X84078947Y-110319574D02*
X83126566Y-110319574D01*
X83126566Y-110319574D02*
X83126566Y-108319574D01*
X83126566Y-108319574D02*
X84078947Y-108319574D01*
X84650376Y-108319574D02*
X85793233Y-108319574D01*
X85221804Y-110319574D02*
X85221804Y-108319574D01*
X87697996Y-108319574D02*
X88364662Y-110319574D01*
X88364662Y-110319574D02*
X89031329Y-108319574D01*
X90745615Y-110319574D02*
X89602758Y-110319574D01*
X90174186Y-110319574D02*
X90174186Y-108319574D01*
X90174186Y-108319574D02*
X89983710Y-108605288D01*
X89983710Y-108605288D02*
X89793234Y-108795764D01*
X89793234Y-108795764D02*
X89602758Y-108891002D01*
X93031330Y-108510050D02*
X93126568Y-108414812D01*
X93126568Y-108414812D02*
X93317044Y-108319574D01*
X93317044Y-108319574D02*
X93793235Y-108319574D01*
X93793235Y-108319574D02*
X93983711Y-108414812D01*
X93983711Y-108414812D02*
X94078949Y-108510050D01*
X94078949Y-108510050D02*
X94174187Y-108700526D01*
X94174187Y-108700526D02*
X94174187Y-108891002D01*
X94174187Y-108891002D02*
X94078949Y-109176716D01*
X94078949Y-109176716D02*
X92936092Y-110319574D01*
X92936092Y-110319574D02*
X94174187Y-110319574D01*
X95412282Y-108319574D02*
X95602759Y-108319574D01*
X95602759Y-108319574D02*
X95793235Y-108414812D01*
X95793235Y-108414812D02*
X95888473Y-108510050D01*
X95888473Y-108510050D02*
X95983711Y-108700526D01*
X95983711Y-108700526D02*
X96078949Y-109081478D01*
X96078949Y-109081478D02*
X96078949Y-109557669D01*
X96078949Y-109557669D02*
X95983711Y-109938621D01*
X95983711Y-109938621D02*
X95888473Y-110129097D01*
X95888473Y-110129097D02*
X95793235Y-110224336D01*
X95793235Y-110224336D02*
X95602759Y-110319574D01*
X95602759Y-110319574D02*
X95412282Y-110319574D01*
X95412282Y-110319574D02*
X95221806Y-110224336D01*
X95221806Y-110224336D02*
X95126568Y-110129097D01*
X95126568Y-110129097D02*
X95031330Y-109938621D01*
X95031330Y-109938621D02*
X94936092Y-109557669D01*
X94936092Y-109557669D02*
X94936092Y-109081478D01*
X94936092Y-109081478D02*
X95031330Y-108700526D01*
X95031330Y-108700526D02*
X95126568Y-108510050D01*
X95126568Y-108510050D02*
X95221806Y-108414812D01*
X95221806Y-108414812D02*
X95412282Y-108319574D01*
X96840854Y-108510050D02*
X96936092Y-108414812D01*
X96936092Y-108414812D02*
X97126568Y-108319574D01*
X97126568Y-108319574D02*
X97602759Y-108319574D01*
X97602759Y-108319574D02*
X97793235Y-108414812D01*
X97793235Y-108414812D02*
X97888473Y-108510050D01*
X97888473Y-108510050D02*
X97983711Y-108700526D01*
X97983711Y-108700526D02*
X97983711Y-108891002D01*
X97983711Y-108891002D02*
X97888473Y-109176716D01*
X97888473Y-109176716D02*
X96745616Y-110319574D01*
X96745616Y-110319574D02*
X97983711Y-110319574D01*
X99697997Y-108986240D02*
X99697997Y-110319574D01*
X99221806Y-108224336D02*
X98745616Y-109652907D01*
X98745616Y-109652907D02*
X99983711Y-109652907D01*
X75221804Y-112491843D02*
X75507518Y-112587081D01*
X75507518Y-112587081D02*
X75602756Y-112682319D01*
X75602756Y-112682319D02*
X75697994Y-112872795D01*
X75697994Y-112872795D02*
X75697994Y-113158509D01*
X75697994Y-113158509D02*
X75602756Y-113348985D01*
X75602756Y-113348985D02*
X75507518Y-113444224D01*
X75507518Y-113444224D02*
X75317042Y-113539462D01*
X75317042Y-113539462D02*
X74555137Y-113539462D01*
X74555137Y-113539462D02*
X74555137Y-111539462D01*
X74555137Y-111539462D02*
X75221804Y-111539462D01*
X75221804Y-111539462D02*
X75412280Y-111634700D01*
X75412280Y-111634700D02*
X75507518Y-111729938D01*
X75507518Y-111729938D02*
X75602756Y-111920414D01*
X75602756Y-111920414D02*
X75602756Y-112110890D01*
X75602756Y-112110890D02*
X75507518Y-112301366D01*
X75507518Y-112301366D02*
X75412280Y-112396604D01*
X75412280Y-112396604D02*
X75221804Y-112491843D01*
X75221804Y-112491843D02*
X74555137Y-112491843D01*
X77697994Y-113539462D02*
X77031327Y-112587081D01*
X76555137Y-113539462D02*
X76555137Y-111539462D01*
X76555137Y-111539462D02*
X77317042Y-111539462D01*
X77317042Y-111539462D02*
X77507518Y-111634700D01*
X77507518Y-111634700D02*
X77602756Y-111729938D01*
X77602756Y-111729938D02*
X77697994Y-111920414D01*
X77697994Y-111920414D02*
X77697994Y-112206128D01*
X77697994Y-112206128D02*
X77602756Y-112396604D01*
X77602756Y-112396604D02*
X77507518Y-112491843D01*
X77507518Y-112491843D02*
X77317042Y-112587081D01*
X77317042Y-112587081D02*
X76555137Y-112587081D01*
X78936089Y-111539462D02*
X79317042Y-111539462D01*
X79317042Y-111539462D02*
X79507518Y-111634700D01*
X79507518Y-111634700D02*
X79697994Y-111825176D01*
X79697994Y-111825176D02*
X79793232Y-112206128D01*
X79793232Y-112206128D02*
X79793232Y-112872795D01*
X79793232Y-112872795D02*
X79697994Y-113253747D01*
X79697994Y-113253747D02*
X79507518Y-113444224D01*
X79507518Y-113444224D02*
X79317042Y-113539462D01*
X79317042Y-113539462D02*
X78936089Y-113539462D01*
X78936089Y-113539462D02*
X78745613Y-113444224D01*
X78745613Y-113444224D02*
X78555137Y-113253747D01*
X78555137Y-113253747D02*
X78459899Y-112872795D01*
X78459899Y-112872795D02*
X78459899Y-112206128D01*
X78459899Y-112206128D02*
X78555137Y-111825176D01*
X78555137Y-111825176D02*
X78745613Y-111634700D01*
X78745613Y-111634700D02*
X78936089Y-111539462D01*
X80459899Y-111539462D02*
X80936089Y-113539462D01*
X80936089Y-113539462D02*
X81317042Y-112110890D01*
X81317042Y-112110890D02*
X81697994Y-113539462D01*
X81697994Y-113539462D02*
X82174185Y-111539462D01*
X82936089Y-113539462D02*
X82936089Y-111539462D01*
X82936089Y-111539462D02*
X84078946Y-113539462D01*
X84078946Y-113539462D02*
X84078946Y-111539462D01*
X86555137Y-111539462D02*
X86555137Y-113158509D01*
X86555137Y-113158509D02*
X86650375Y-113348985D01*
X86650375Y-113348985D02*
X86745613Y-113444224D01*
X86745613Y-113444224D02*
X86936089Y-113539462D01*
X86936089Y-113539462D02*
X87317042Y-113539462D01*
X87317042Y-113539462D02*
X87507518Y-113444224D01*
X87507518Y-113444224D02*
X87602756Y-113348985D01*
X87602756Y-113348985D02*
X87697994Y-113158509D01*
X87697994Y-113158509D02*
X87697994Y-111539462D01*
X88650375Y-113539462D02*
X88650375Y-111539462D01*
X88650375Y-111539462D02*
X89793232Y-113539462D01*
X89793232Y-113539462D02*
X89793232Y-111539462D01*
X90745613Y-113539462D02*
X90745613Y-111539462D01*
X91412280Y-111539462D02*
X92078946Y-113539462D01*
X92078946Y-113539462D02*
X92745613Y-111539462D01*
X93412280Y-112491843D02*
X94078947Y-112491843D01*
X94364661Y-113539462D02*
X93412280Y-113539462D01*
X93412280Y-113539462D02*
X93412280Y-111539462D01*
X93412280Y-111539462D02*
X94364661Y-111539462D01*
X96364661Y-113539462D02*
X95697994Y-112587081D01*
X95221804Y-113539462D02*
X95221804Y-111539462D01*
X95221804Y-111539462D02*
X95983709Y-111539462D01*
X95983709Y-111539462D02*
X96174185Y-111634700D01*
X96174185Y-111634700D02*
X96269423Y-111729938D01*
X96269423Y-111729938D02*
X96364661Y-111920414D01*
X96364661Y-111920414D02*
X96364661Y-112206128D01*
X96364661Y-112206128D02*
X96269423Y-112396604D01*
X96269423Y-112396604D02*
X96174185Y-112491843D01*
X96174185Y-112491843D02*
X95983709Y-112587081D01*
X95983709Y-112587081D02*
X95221804Y-112587081D01*
X97126566Y-113444224D02*
X97412280Y-113539462D01*
X97412280Y-113539462D02*
X97888471Y-113539462D01*
X97888471Y-113539462D02*
X98078947Y-113444224D01*
X98078947Y-113444224D02*
X98174185Y-113348985D01*
X98174185Y-113348985D02*
X98269423Y-113158509D01*
X98269423Y-113158509D02*
X98269423Y-112968033D01*
X98269423Y-112968033D02*
X98174185Y-112777557D01*
X98174185Y-112777557D02*
X98078947Y-112682319D01*
X98078947Y-112682319D02*
X97888471Y-112587081D01*
X97888471Y-112587081D02*
X97507518Y-112491843D01*
X97507518Y-112491843D02*
X97317042Y-112396604D01*
X97317042Y-112396604D02*
X97221804Y-112301366D01*
X97221804Y-112301366D02*
X97126566Y-112110890D01*
X97126566Y-112110890D02*
X97126566Y-111920414D01*
X97126566Y-111920414D02*
X97221804Y-111729938D01*
X97221804Y-111729938D02*
X97317042Y-111634700D01*
X97317042Y-111634700D02*
X97507518Y-111539462D01*
X97507518Y-111539462D02*
X97983709Y-111539462D01*
X97983709Y-111539462D02*
X98269423Y-111634700D01*
X99126566Y-113539462D02*
X99126566Y-111539462D01*
X99793233Y-111539462D02*
X100936090Y-111539462D01*
X100364661Y-113539462D02*
X100364661Y-111539462D01*
X101983709Y-112587081D02*
X101983709Y-113539462D01*
X101317043Y-111539462D02*
X101983709Y-112587081D01*
X101983709Y-112587081D02*
X102650376Y-111539462D01*
X74555137Y-116759350D02*
X74555137Y-114759350D01*
X74555137Y-114759350D02*
X75221804Y-116187921D01*
X75221804Y-116187921D02*
X75888470Y-114759350D01*
X75888470Y-114759350D02*
X75888470Y-116759350D01*
X77221803Y-114759350D02*
X77602756Y-114759350D01*
X77602756Y-114759350D02*
X77793232Y-114854588D01*
X77793232Y-114854588D02*
X77983708Y-115045064D01*
X77983708Y-115045064D02*
X78078946Y-115426016D01*
X78078946Y-115426016D02*
X78078946Y-116092683D01*
X78078946Y-116092683D02*
X77983708Y-116473635D01*
X77983708Y-116473635D02*
X77793232Y-116664112D01*
X77793232Y-116664112D02*
X77602756Y-116759350D01*
X77602756Y-116759350D02*
X77221803Y-116759350D01*
X77221803Y-116759350D02*
X77031327Y-116664112D01*
X77031327Y-116664112D02*
X76840851Y-116473635D01*
X76840851Y-116473635D02*
X76745613Y-116092683D01*
X76745613Y-116092683D02*
X76745613Y-115426016D01*
X76745613Y-115426016D02*
X76840851Y-115045064D01*
X76840851Y-115045064D02*
X77031327Y-114854588D01*
X77031327Y-114854588D02*
X77221803Y-114759350D01*
X78936089Y-116759350D02*
X78936089Y-114759350D01*
X78936089Y-115711731D02*
X80078946Y-115711731D01*
X80078946Y-116759350D02*
X80078946Y-114759350D01*
X80936089Y-116187921D02*
X81888470Y-116187921D01*
X80745613Y-116759350D02*
X81412279Y-114759350D01*
X81412279Y-114759350D02*
X82078946Y-116759350D01*
X82745613Y-116759350D02*
X82745613Y-114759350D01*
X82745613Y-114759350D02*
X83412280Y-116187921D01*
X83412280Y-116187921D02*
X84078946Y-114759350D01*
X84078946Y-114759350D02*
X84078946Y-116759350D01*
X85031327Y-115711731D02*
X85697994Y-115711731D01*
X85983708Y-116759350D02*
X85031327Y-116759350D01*
X85031327Y-116759350D02*
X85031327Y-114759350D01*
X85031327Y-114759350D02*
X85983708Y-114759350D01*
X86840851Y-116759350D02*
X86840851Y-114759350D01*
X86840851Y-114759350D02*
X87317041Y-114759350D01*
X87317041Y-114759350D02*
X87602756Y-114854588D01*
X87602756Y-114854588D02*
X87793232Y-115045064D01*
X87793232Y-115045064D02*
X87888470Y-115235540D01*
X87888470Y-115235540D02*
X87983708Y-115616492D01*
X87983708Y-115616492D02*
X87983708Y-115902207D01*
X87983708Y-115902207D02*
X87888470Y-116283159D01*
X87888470Y-116283159D02*
X87793232Y-116473635D01*
X87793232Y-116473635D02*
X87602756Y-116664112D01*
X87602756Y-116664112D02*
X87317041Y-116759350D01*
X87317041Y-116759350D02*
X86840851Y-116759350D01*
X91983709Y-116759350D02*
X91888471Y-116759350D01*
X91888471Y-116759350D02*
X91697994Y-116664112D01*
X91697994Y-116664112D02*
X91412280Y-116378397D01*
X91412280Y-116378397D02*
X90936090Y-115806969D01*
X90936090Y-115806969D02*
X90745613Y-115521254D01*
X90745613Y-115521254D02*
X90650375Y-115235540D01*
X90650375Y-115235540D02*
X90650375Y-115045064D01*
X90650375Y-115045064D02*
X90745613Y-114854588D01*
X90745613Y-114854588D02*
X90936090Y-114759350D01*
X90936090Y-114759350D02*
X91031328Y-114759350D01*
X91031328Y-114759350D02*
X91221804Y-114854588D01*
X91221804Y-114854588D02*
X91317042Y-115045064D01*
X91317042Y-115045064D02*
X91317042Y-115140302D01*
X91317042Y-115140302D02*
X91221804Y-115330778D01*
X91221804Y-115330778D02*
X91126566Y-115426016D01*
X91126566Y-115426016D02*
X90555137Y-115806969D01*
X90555137Y-115806969D02*
X90459899Y-115902207D01*
X90459899Y-115902207D02*
X90364661Y-116092683D01*
X90364661Y-116092683D02*
X90364661Y-116378397D01*
X90364661Y-116378397D02*
X90459899Y-116568873D01*
X90459899Y-116568873D02*
X90555137Y-116664112D01*
X90555137Y-116664112D02*
X90745613Y-116759350D01*
X90745613Y-116759350D02*
X91031328Y-116759350D01*
X91031328Y-116759350D02*
X91221804Y-116664112D01*
X91221804Y-116664112D02*
X91317042Y-116568873D01*
X91317042Y-116568873D02*
X91602756Y-116187921D01*
X91602756Y-116187921D02*
X91697994Y-115902207D01*
X91697994Y-115902207D02*
X91697994Y-115711731D01*
X95507518Y-116759350D02*
X94840851Y-115806969D01*
X94364661Y-116759350D02*
X94364661Y-114759350D01*
X94364661Y-114759350D02*
X95126566Y-114759350D01*
X95126566Y-114759350D02*
X95317042Y-114854588D01*
X95317042Y-114854588D02*
X95412280Y-114949826D01*
X95412280Y-114949826D02*
X95507518Y-115140302D01*
X95507518Y-115140302D02*
X95507518Y-115426016D01*
X95507518Y-115426016D02*
X95412280Y-115616492D01*
X95412280Y-115616492D02*
X95317042Y-115711731D01*
X95317042Y-115711731D02*
X95126566Y-115806969D01*
X95126566Y-115806969D02*
X94364661Y-115806969D01*
X96745613Y-114759350D02*
X97126566Y-114759350D01*
X97126566Y-114759350D02*
X97317042Y-114854588D01*
X97317042Y-114854588D02*
X97507518Y-115045064D01*
X97507518Y-115045064D02*
X97602756Y-115426016D01*
X97602756Y-115426016D02*
X97602756Y-116092683D01*
X97602756Y-116092683D02*
X97507518Y-116473635D01*
X97507518Y-116473635D02*
X97317042Y-116664112D01*
X97317042Y-116664112D02*
X97126566Y-116759350D01*
X97126566Y-116759350D02*
X96745613Y-116759350D01*
X96745613Y-116759350D02*
X96555137Y-116664112D01*
X96555137Y-116664112D02*
X96364661Y-116473635D01*
X96364661Y-116473635D02*
X96269423Y-116092683D01*
X96269423Y-116092683D02*
X96269423Y-115426016D01*
X96269423Y-115426016D02*
X96364661Y-115045064D01*
X96364661Y-115045064D02*
X96555137Y-114854588D01*
X96555137Y-114854588D02*
X96745613Y-114759350D01*
X98364661Y-116664112D02*
X98650375Y-116759350D01*
X98650375Y-116759350D02*
X99126566Y-116759350D01*
X99126566Y-116759350D02*
X99317042Y-116664112D01*
X99317042Y-116664112D02*
X99412280Y-116568873D01*
X99412280Y-116568873D02*
X99507518Y-116378397D01*
X99507518Y-116378397D02*
X99507518Y-116187921D01*
X99507518Y-116187921D02*
X99412280Y-115997445D01*
X99412280Y-115997445D02*
X99317042Y-115902207D01*
X99317042Y-115902207D02*
X99126566Y-115806969D01*
X99126566Y-115806969D02*
X98745613Y-115711731D01*
X98745613Y-115711731D02*
X98555137Y-115616492D01*
X98555137Y-115616492D02*
X98459899Y-115521254D01*
X98459899Y-115521254D02*
X98364661Y-115330778D01*
X98364661Y-115330778D02*
X98364661Y-115140302D01*
X98364661Y-115140302D02*
X98459899Y-114949826D01*
X98459899Y-114949826D02*
X98555137Y-114854588D01*
X98555137Y-114854588D02*
X98745613Y-114759350D01*
X98745613Y-114759350D02*
X99221804Y-114759350D01*
X99221804Y-114759350D02*
X99507518Y-114854588D01*
X100364661Y-115711731D02*
X101031328Y-115711731D01*
X101317042Y-116759350D02*
X100364661Y-116759350D01*
X100364661Y-116759350D02*
X100364661Y-114759350D01*
X100364661Y-114759350D02*
X101317042Y-114759350D01*
X102174185Y-116759350D02*
X102174185Y-114759350D01*
X102174185Y-114759350D02*
X103317042Y-116759350D01*
X103317042Y-116759350D02*
X103317042Y-114759350D01*
X104174185Y-116664112D02*
X104459899Y-116759350D01*
X104459899Y-116759350D02*
X104936090Y-116759350D01*
X104936090Y-116759350D02*
X105126566Y-116664112D01*
X105126566Y-116664112D02*
X105221804Y-116568873D01*
X105221804Y-116568873D02*
X105317042Y-116378397D01*
X105317042Y-116378397D02*
X105317042Y-116187921D01*
X105317042Y-116187921D02*
X105221804Y-115997445D01*
X105221804Y-115997445D02*
X105126566Y-115902207D01*
X105126566Y-115902207D02*
X104936090Y-115806969D01*
X104936090Y-115806969D02*
X104555137Y-115711731D01*
X104555137Y-115711731D02*
X104364661Y-115616492D01*
X104364661Y-115616492D02*
X104269423Y-115521254D01*
X104269423Y-115521254D02*
X104174185Y-115330778D01*
X104174185Y-115330778D02*
X104174185Y-115140302D01*
X104174185Y-115140302D02*
X104269423Y-114949826D01*
X104269423Y-114949826D02*
X104364661Y-114854588D01*
X104364661Y-114854588D02*
X104555137Y-114759350D01*
X104555137Y-114759350D02*
X105031328Y-114759350D01*
X105031328Y-114759350D02*
X105317042Y-114854588D01*
X105888471Y-114759350D02*
X107031328Y-114759350D01*
X106459899Y-116759350D02*
X106459899Y-114759350D01*
X107697995Y-115711731D02*
X108364662Y-115711731D01*
X108650376Y-116759350D02*
X107697995Y-116759350D01*
X107697995Y-116759350D02*
X107697995Y-114759350D01*
X107697995Y-114759350D02*
X108650376Y-114759350D01*
X109507519Y-116759350D02*
X109507519Y-114759350D01*
X110459900Y-116759350D02*
X110459900Y-114759350D01*
X110459900Y-114759350D02*
X111602757Y-116759350D01*
X111602757Y-116759350D02*
X111602757Y-114759350D01*
X75697994Y-119979238D02*
X75031327Y-119026857D01*
X74555137Y-119979238D02*
X74555137Y-117979238D01*
X74555137Y-117979238D02*
X75317042Y-117979238D01*
X75317042Y-117979238D02*
X75507518Y-118074476D01*
X75507518Y-118074476D02*
X75602756Y-118169714D01*
X75602756Y-118169714D02*
X75697994Y-118360190D01*
X75697994Y-118360190D02*
X75697994Y-118645904D01*
X75697994Y-118645904D02*
X75602756Y-118836380D01*
X75602756Y-118836380D02*
X75507518Y-118931619D01*
X75507518Y-118931619D02*
X75317042Y-119026857D01*
X75317042Y-119026857D02*
X74555137Y-119026857D01*
X76936089Y-117979238D02*
X77317042Y-117979238D01*
X77317042Y-117979238D02*
X77507518Y-118074476D01*
X77507518Y-118074476D02*
X77697994Y-118264952D01*
X77697994Y-118264952D02*
X77793232Y-118645904D01*
X77793232Y-118645904D02*
X77793232Y-119312571D01*
X77793232Y-119312571D02*
X77697994Y-119693523D01*
X77697994Y-119693523D02*
X77507518Y-119884000D01*
X77507518Y-119884000D02*
X77317042Y-119979238D01*
X77317042Y-119979238D02*
X76936089Y-119979238D01*
X76936089Y-119979238D02*
X76745613Y-119884000D01*
X76745613Y-119884000D02*
X76555137Y-119693523D01*
X76555137Y-119693523D02*
X76459899Y-119312571D01*
X76459899Y-119312571D02*
X76459899Y-118645904D01*
X76459899Y-118645904D02*
X76555137Y-118264952D01*
X76555137Y-118264952D02*
X76745613Y-118074476D01*
X76745613Y-118074476D02*
X76936089Y-117979238D01*
X78555137Y-119884000D02*
X78840851Y-119979238D01*
X78840851Y-119979238D02*
X79317042Y-119979238D01*
X79317042Y-119979238D02*
X79507518Y-119884000D01*
X79507518Y-119884000D02*
X79602756Y-119788761D01*
X79602756Y-119788761D02*
X79697994Y-119598285D01*
X79697994Y-119598285D02*
X79697994Y-119407809D01*
X79697994Y-119407809D02*
X79602756Y-119217333D01*
X79602756Y-119217333D02*
X79507518Y-119122095D01*
X79507518Y-119122095D02*
X79317042Y-119026857D01*
X79317042Y-119026857D02*
X78936089Y-118931619D01*
X78936089Y-118931619D02*
X78745613Y-118836380D01*
X78745613Y-118836380D02*
X78650375Y-118741142D01*
X78650375Y-118741142D02*
X78555137Y-118550666D01*
X78555137Y-118550666D02*
X78555137Y-118360190D01*
X78555137Y-118360190D02*
X78650375Y-118169714D01*
X78650375Y-118169714D02*
X78745613Y-118074476D01*
X78745613Y-118074476D02*
X78936089Y-117979238D01*
X78936089Y-117979238D02*
X79412280Y-117979238D01*
X79412280Y-117979238D02*
X79697994Y-118074476D01*
X80555137Y-118931619D02*
X81221804Y-118931619D01*
X81507518Y-119979238D02*
X80555137Y-119979238D01*
X80555137Y-119979238D02*
X80555137Y-117979238D01*
X80555137Y-117979238D02*
X81507518Y-117979238D01*
X82364661Y-119979238D02*
X82364661Y-117979238D01*
X82364661Y-117979238D02*
X83507518Y-119979238D01*
X83507518Y-119979238D02*
X83507518Y-117979238D01*
X84364661Y-119884000D02*
X84650375Y-119979238D01*
X84650375Y-119979238D02*
X85126566Y-119979238D01*
X85126566Y-119979238D02*
X85317042Y-119884000D01*
X85317042Y-119884000D02*
X85412280Y-119788761D01*
X85412280Y-119788761D02*
X85507518Y-119598285D01*
X85507518Y-119598285D02*
X85507518Y-119407809D01*
X85507518Y-119407809D02*
X85412280Y-119217333D01*
X85412280Y-119217333D02*
X85317042Y-119122095D01*
X85317042Y-119122095D02*
X85126566Y-119026857D01*
X85126566Y-119026857D02*
X84745613Y-118931619D01*
X84745613Y-118931619D02*
X84555137Y-118836380D01*
X84555137Y-118836380D02*
X84459899Y-118741142D01*
X84459899Y-118741142D02*
X84364661Y-118550666D01*
X84364661Y-118550666D02*
X84364661Y-118360190D01*
X84364661Y-118360190D02*
X84459899Y-118169714D01*
X84459899Y-118169714D02*
X84555137Y-118074476D01*
X84555137Y-118074476D02*
X84745613Y-117979238D01*
X84745613Y-117979238D02*
X85221804Y-117979238D01*
X85221804Y-117979238D02*
X85507518Y-118074476D01*
X86078947Y-117979238D02*
X87221804Y-117979238D01*
X86650375Y-119979238D02*
X86650375Y-117979238D01*
X87888471Y-118931619D02*
X88555138Y-118931619D01*
X88840852Y-119979238D02*
X87888471Y-119979238D01*
X87888471Y-119979238D02*
X87888471Y-117979238D01*
X87888471Y-117979238D02*
X88840852Y-117979238D01*
X89697995Y-119979238D02*
X89697995Y-117979238D01*
X90650376Y-119979238D02*
X90650376Y-117979238D01*
X90650376Y-117979238D02*
X91793233Y-119979238D01*
X91793233Y-119979238D02*
X91793233Y-117979238D01*
X92745614Y-119788761D02*
X92840852Y-119884000D01*
X92840852Y-119884000D02*
X92745614Y-119979238D01*
X92745614Y-119979238D02*
X92650376Y-119884000D01*
X92650376Y-119884000D02*
X92745614Y-119788761D01*
X92745614Y-119788761D02*
X92745614Y-119979238D01*
X93697995Y-118931619D02*
X94364662Y-118931619D01*
X94650376Y-119979238D02*
X93697995Y-119979238D01*
X93697995Y-119979238D02*
X93697995Y-117979238D01*
X93697995Y-117979238D02*
X94650376Y-117979238D01*
X95507519Y-119979238D02*
X95507519Y-117979238D01*
X95507519Y-117979238D02*
X96650376Y-119979238D01*
X96650376Y-119979238D02*
X96650376Y-117979238D01*
X98650376Y-118074476D02*
X98459900Y-117979238D01*
X98459900Y-117979238D02*
X98174186Y-117979238D01*
X98174186Y-117979238D02*
X97888471Y-118074476D01*
X97888471Y-118074476D02*
X97697995Y-118264952D01*
X97697995Y-118264952D02*
X97602757Y-118455428D01*
X97602757Y-118455428D02*
X97507519Y-118836380D01*
X97507519Y-118836380D02*
X97507519Y-119122095D01*
X97507519Y-119122095D02*
X97602757Y-119503047D01*
X97602757Y-119503047D02*
X97697995Y-119693523D01*
X97697995Y-119693523D02*
X97888471Y-119884000D01*
X97888471Y-119884000D02*
X98174186Y-119979238D01*
X98174186Y-119979238D02*
X98364662Y-119979238D01*
X98364662Y-119979238D02*
X98650376Y-119884000D01*
X98650376Y-119884000D02*
X98745614Y-119788761D01*
X98745614Y-119788761D02*
X98745614Y-119122095D01*
X98745614Y-119122095D02*
X98364662Y-119122095D01*
X99602757Y-119979238D02*
X99602757Y-117979238D01*
X100555138Y-119979238D02*
X100555138Y-117979238D01*
X100555138Y-117979238D02*
X101697995Y-119979238D01*
X101697995Y-119979238D02*
X101697995Y-117979238D01*
X102650376Y-119788761D02*
X102745614Y-119884000D01*
X102745614Y-119884000D02*
X102650376Y-119979238D01*
X102650376Y-119979238D02*
X102555138Y-119884000D01*
X102555138Y-119884000D02*
X102650376Y-119788761D01*
X102650376Y-119788761D02*
X102650376Y-119979238D01*
X104269424Y-118931619D02*
X104555138Y-119026857D01*
X104555138Y-119026857D02*
X104650376Y-119122095D01*
X104650376Y-119122095D02*
X104745614Y-119312571D01*
X104745614Y-119312571D02*
X104745614Y-119598285D01*
X104745614Y-119598285D02*
X104650376Y-119788761D01*
X104650376Y-119788761D02*
X104555138Y-119884000D01*
X104555138Y-119884000D02*
X104364662Y-119979238D01*
X104364662Y-119979238D02*
X103602757Y-119979238D01*
X103602757Y-119979238D02*
X103602757Y-117979238D01*
X103602757Y-117979238D02*
X104269424Y-117979238D01*
X104269424Y-117979238D02*
X104459900Y-118074476D01*
X104459900Y-118074476D02*
X104555138Y-118169714D01*
X104555138Y-118169714D02*
X104650376Y-118360190D01*
X104650376Y-118360190D02*
X104650376Y-118550666D01*
X104650376Y-118550666D02*
X104555138Y-118741142D01*
X104555138Y-118741142D02*
X104459900Y-118836380D01*
X104459900Y-118836380D02*
X104269424Y-118931619D01*
X104269424Y-118931619D02*
X103602757Y-118931619D01*
X106745614Y-119979238D02*
X106078947Y-119026857D01*
X105602757Y-119979238D02*
X105602757Y-117979238D01*
X105602757Y-117979238D02*
X106364662Y-117979238D01*
X106364662Y-117979238D02*
X106555138Y-118074476D01*
X106555138Y-118074476D02*
X106650376Y-118169714D01*
X106650376Y-118169714D02*
X106745614Y-118360190D01*
X106745614Y-118360190D02*
X106745614Y-118645904D01*
X106745614Y-118645904D02*
X106650376Y-118836380D01*
X106650376Y-118836380D02*
X106555138Y-118931619D01*
X106555138Y-118931619D02*
X106364662Y-119026857D01*
X106364662Y-119026857D02*
X105602757Y-119026857D01*
X107983709Y-117979238D02*
X108364662Y-117979238D01*
X108364662Y-117979238D02*
X108555138Y-118074476D01*
X108555138Y-118074476D02*
X108745614Y-118264952D01*
X108745614Y-118264952D02*
X108840852Y-118645904D01*
X108840852Y-118645904D02*
X108840852Y-119312571D01*
X108840852Y-119312571D02*
X108745614Y-119693523D01*
X108745614Y-119693523D02*
X108555138Y-119884000D01*
X108555138Y-119884000D02*
X108364662Y-119979238D01*
X108364662Y-119979238D02*
X107983709Y-119979238D01*
X107983709Y-119979238D02*
X107793233Y-119884000D01*
X107793233Y-119884000D02*
X107602757Y-119693523D01*
X107602757Y-119693523D02*
X107507519Y-119312571D01*
X107507519Y-119312571D02*
X107507519Y-118645904D01*
X107507519Y-118645904D02*
X107602757Y-118264952D01*
X107602757Y-118264952D02*
X107793233Y-118074476D01*
X107793233Y-118074476D02*
X107983709Y-117979238D01*
X109507519Y-117979238D02*
X109983709Y-119979238D01*
X109983709Y-119979238D02*
X110364662Y-118550666D01*
X110364662Y-118550666D02*
X110745614Y-119979238D01*
X110745614Y-119979238D02*
X111221805Y-117979238D01*
X111983709Y-119979238D02*
X111983709Y-117979238D01*
X111983709Y-117979238D02*
X113126566Y-119979238D01*
X113126566Y-119979238D02*
X113126566Y-117979238D01*
X114078947Y-119788761D02*
X114174185Y-119884000D01*
X114174185Y-119884000D02*
X114078947Y-119979238D01*
X114078947Y-119979238D02*
X113983709Y-119884000D01*
X113983709Y-119884000D02*
X114078947Y-119788761D01*
X114078947Y-119788761D02*
X114078947Y-119979238D01*
X115031328Y-118931619D02*
X115697995Y-118931619D01*
X115983709Y-119979238D02*
X115031328Y-119979238D01*
X115031328Y-119979238D02*
X115031328Y-117979238D01*
X115031328Y-117979238D02*
X115983709Y-117979238D01*
X116840852Y-119979238D02*
X116840852Y-117979238D01*
X116840852Y-117979238D02*
X117317042Y-117979238D01*
X117317042Y-117979238D02*
X117602757Y-118074476D01*
X117602757Y-118074476D02*
X117793233Y-118264952D01*
X117793233Y-118264952D02*
X117888471Y-118455428D01*
X117888471Y-118455428D02*
X117983709Y-118836380D01*
X117983709Y-118836380D02*
X117983709Y-119122095D01*
X117983709Y-119122095D02*
X117888471Y-119503047D01*
X117888471Y-119503047D02*
X117793233Y-119693523D01*
X117793233Y-119693523D02*
X117602757Y-119884000D01*
X117602757Y-119884000D02*
X117317042Y-119979238D01*
X117317042Y-119979238D02*
X116840852Y-119979238D01*
X118840852Y-117979238D02*
X118840852Y-119598285D01*
X118840852Y-119598285D02*
X118936090Y-119788761D01*
X118936090Y-119788761D02*
X119031328Y-119884000D01*
X119031328Y-119884000D02*
X119221804Y-119979238D01*
X119221804Y-119979238D02*
X119602757Y-119979238D01*
X119602757Y-119979238D02*
X119793233Y-119884000D01*
X119793233Y-119884000D02*
X119888471Y-119788761D01*
X119888471Y-119788761D02*
X119983709Y-119598285D01*
X119983709Y-119598285D02*
X119983709Y-117979238D01*
D11*
X46166666Y-61304819D02*
X46166666Y-62019104D01*
X46166666Y-62019104D02*
X46119047Y-62161961D01*
X46119047Y-62161961D02*
X46023809Y-62257200D01*
X46023809Y-62257200D02*
X45880952Y-62304819D01*
X45880952Y-62304819D02*
X45785714Y-62304819D01*
X47071428Y-61638152D02*
X47071428Y-62304819D01*
X46833333Y-61257200D02*
X46595238Y-61971485D01*
X46595238Y-61971485D02*
X47214285Y-61971485D01*
X46141666Y-96249819D02*
X46141666Y-96964104D01*
X46141666Y-96964104D02*
X46094047Y-97106961D01*
X46094047Y-97106961D02*
X45998809Y-97202200D01*
X45998809Y-97202200D02*
X45855952Y-97249819D01*
X45855952Y-97249819D02*
X45760714Y-97249819D01*
X46570238Y-96345057D02*
X46617857Y-96297438D01*
X46617857Y-96297438D02*
X46713095Y-96249819D01*
X46713095Y-96249819D02*
X46951190Y-96249819D01*
X46951190Y-96249819D02*
X47046428Y-96297438D01*
X47046428Y-96297438D02*
X47094047Y-96345057D01*
X47094047Y-96345057D02*
X47141666Y-96440295D01*
X47141666Y-96440295D02*
X47141666Y-96535533D01*
X47141666Y-96535533D02*
X47094047Y-96678390D01*
X47094047Y-96678390D02*
X46522619Y-97249819D01*
X46522619Y-97249819D02*
X47141666Y-97249819D01*
X46166666Y-131304819D02*
X46166666Y-132019104D01*
X46166666Y-132019104D02*
X46119047Y-132161961D01*
X46119047Y-132161961D02*
X46023809Y-132257200D01*
X46023809Y-132257200D02*
X45880952Y-132304819D01*
X45880952Y-132304819D02*
X45785714Y-132304819D01*
X46547619Y-131304819D02*
X47166666Y-131304819D01*
X47166666Y-131304819D02*
X46833333Y-131685771D01*
X46833333Y-131685771D02*
X46976190Y-131685771D01*
X46976190Y-131685771D02*
X47071428Y-131733390D01*
X47071428Y-131733390D02*
X47119047Y-131781009D01*
X47119047Y-131781009D02*
X47166666Y-131876247D01*
X47166666Y-131876247D02*
X47166666Y-132114342D01*
X47166666Y-132114342D02*
X47119047Y-132209580D01*
X47119047Y-132209580D02*
X47071428Y-132257200D01*
X47071428Y-132257200D02*
X46976190Y-132304819D01*
X46976190Y-132304819D02*
X46690476Y-132304819D01*
X46690476Y-132304819D02*
X46595238Y-132257200D01*
X46595238Y-132257200D02*
X46547619Y-132209580D01*
D12*
%TO.C,J4*%
X45170000Y-57810000D02*
X45170000Y-52670000D01*
X45170000Y-60410000D02*
X45170000Y-59080000D01*
X46500000Y-60410000D02*
X45170000Y-60410000D01*
X47830000Y-52670000D02*
X45170000Y-52670000D01*
X47830000Y-57810000D02*
X45170000Y-57810000D01*
X47830000Y-57810000D02*
X47830000Y-52670000D01*
%TO.C,J2*%
X45145000Y-92755000D02*
X45145000Y-87615000D01*
X45145000Y-95355000D02*
X45145000Y-94025000D01*
X46475000Y-95355000D02*
X45145000Y-95355000D01*
X47805000Y-87615000D02*
X45145000Y-87615000D01*
X47805000Y-92755000D02*
X45145000Y-92755000D01*
X47805000Y-92755000D02*
X47805000Y-87615000D01*
%TO.C,J3*%
X45170000Y-127810000D02*
X45170000Y-122670000D01*
X45170000Y-130410000D02*
X45170000Y-129080000D01*
X46500000Y-130410000D02*
X45170000Y-130410000D01*
X47830000Y-122670000D02*
X45170000Y-122670000D01*
X47830000Y-127810000D02*
X45170000Y-127810000D01*
X47830000Y-127810000D02*
X47830000Y-122670000D01*
%TD*%
M02*
