%TF.GenerationSoftware,KiCad,Pcbnew,8.0.3*%
%TF.CreationDate,2024-11-03T11:14:26-05:00*%
%TF.ProjectId,toy,746f792e-6b69-4636-9164-5f7063625858,rev?*%
%TF.SameCoordinates,Original*%
%TF.FileFunction,Soldermask,Top*%
%TF.FilePolarity,Negative*%
%FSLAX46Y46*%
G04 Gerber Fmt 4.6, Leading zero omitted, Abs format (unit mm)*
G04 Created by KiCad (PCBNEW 8.0.3) date 2024-11-03 11:14:26*
%MOMM*%
%LPD*%
G01*
G04 APERTURE LIST*
G04 Aperture macros list*
%AMRoundRect*
0 Rectangle with rounded corners*
0 $1 Rounding radius*
0 $2 $3 $4 $5 $6 $7 $8 $9 X,Y pos of 4 corners*
0 Add a 4 corners polygon primitive as box body*
4,1,4,$2,$3,$4,$5,$6,$7,$8,$9,$2,$3,0*
0 Add four circle primitives for the rounded corners*
1,1,$1+$1,$2,$3*
1,1,$1+$1,$4,$5*
1,1,$1+$1,$6,$7*
1,1,$1+$1,$8,$9*
0 Add four rect primitives between the rounded corners*
20,1,$1+$1,$2,$3,$4,$5,0*
20,1,$1+$1,$4,$5,$6,$7,0*
20,1,$1+$1,$6,$7,$8,$9,0*
20,1,$1+$1,$8,$9,$2,$3,0*%
G04 Aperture macros list end*
%ADD10C,3.000000*%
%ADD11C,1.600000*%
%ADD12O,1.600000X1.600000*%
%ADD13R,1.600000X1.600000*%
%ADD14R,2.000000X2.000000*%
%ADD15C,2.000000*%
%ADD16R,1.700000X1.700000*%
%ADD17O,1.700000X1.700000*%
%ADD18RoundRect,0.381000X0.762000X0.381000X-0.762000X0.381000X-0.762000X-0.381000X0.762000X-0.381000X0*%
G04 APERTURE END LIST*
D10*
%TO.C,REF\u002A\u002A*%
X76500000Y-41000000D03*
%TD*%
%TO.C,REF\u002A\u002A*%
X196500000Y-41000000D03*
%TD*%
%TO.C,REF\u002A\u002A*%
X196500000Y-141000000D03*
%TD*%
%TO.C,REF\u002A\u002A*%
X76500000Y-141000000D03*
%TD*%
D11*
%TO.C,R8*%
X63910000Y-56500000D03*
D12*
X53750000Y-56500000D03*
%TD*%
%TO.C,R7*%
X53420000Y-126500000D03*
D11*
X63580000Y-126500000D03*
%TD*%
%TO.C,R6*%
X205920000Y-74500000D03*
D12*
X216080000Y-74500000D03*
%TD*%
D13*
%TO.C,C4*%
X222000000Y-61250000D03*
D11*
X217000000Y-61250000D03*
%TD*%
D13*
%TO.C,C3*%
X174500000Y-74000000D03*
D11*
X179500000Y-74000000D03*
%TD*%
D13*
%TO.C,C2*%
X59500000Y-133250000D03*
D11*
X59500000Y-138250000D03*
%TD*%
D13*
%TO.C,C1*%
X54000000Y-68250000D03*
D11*
X54000000Y-73250000D03*
%TD*%
D14*
%TO.C,U4*%
X141500000Y-41000000D03*
D15*
X136500000Y-41000000D03*
X131500000Y-41000000D03*
%TD*%
D10*
%TO.C,REF\u002A\u002A*%
X196500000Y-91500000D03*
%TD*%
D14*
%TO.C,U1*%
X226500000Y-96500000D03*
D15*
X226500000Y-91500000D03*
X226500000Y-86500000D03*
%TD*%
D10*
%TO.C,REF\u002A\u002A*%
X76500000Y-91500000D03*
%TD*%
D16*
%TO.C,J4*%
X46500000Y-59080000D03*
D17*
X46500000Y-56540000D03*
X46500000Y-54000000D03*
%TD*%
D14*
%TO.C,U3*%
X131500000Y-141137500D03*
D15*
X136500000Y-141137500D03*
X141500000Y-141137500D03*
%TD*%
D10*
%TO.C,REF\u002A\u002A*%
X166500000Y-141000000D03*
%TD*%
D16*
%TO.C,J2*%
X226500000Y-71920000D03*
D17*
X226500000Y-74460000D03*
X226500000Y-77000000D03*
%TD*%
D10*
%TO.C,REF\u002A\u002A*%
X106500000Y-141000000D03*
%TD*%
D14*
%TO.C,U2*%
X46500000Y-86137500D03*
D15*
X46500000Y-91137500D03*
X46500000Y-96137500D03*
%TD*%
D10*
%TO.C,REF\u002A\u002A*%
X226500000Y-41000000D03*
%TD*%
%TO.C,REF\u002A\u002A*%
X166500000Y-41000000D03*
%TD*%
D16*
%TO.C,J3*%
X46000000Y-129080000D03*
D17*
X46000000Y-126540000D03*
X46000000Y-124000000D03*
%TD*%
D10*
%TO.C,REF\u002A\u002A*%
X46500000Y-141000000D03*
%TD*%
%TO.C,REF\u002A\u002A*%
X46500000Y-41000000D03*
%TD*%
%TO.C,REF\u002A\u002A*%
X226500000Y-141000000D03*
%TD*%
%TO.C,REF\u002A\u002A*%
X106500000Y-41000000D03*
%TD*%
D13*
%TO.C,A1*%
X182160000Y-98500000D03*
D12*
X179620000Y-98500000D03*
X177080000Y-98500000D03*
X174540000Y-98500000D03*
X172000000Y-98500000D03*
X169460000Y-98500000D03*
X166920000Y-98500000D03*
X164380000Y-98500000D03*
X161840000Y-98500000D03*
X159300000Y-98500000D03*
X156760000Y-98500000D03*
X154220000Y-98500000D03*
X151680000Y-98500000D03*
X149140000Y-98500000D03*
X146600000Y-98500000D03*
X146600000Y-83260000D03*
X149140000Y-83260000D03*
X151680000Y-83260000D03*
X154220000Y-83260000D03*
X156760000Y-83260000D03*
X159300000Y-83260000D03*
X161840000Y-83260000D03*
X164380000Y-83260000D03*
X166920000Y-83260000D03*
X169460000Y-83260000D03*
X172000000Y-83260000D03*
X174540000Y-83260000D03*
X177080000Y-83260000D03*
X179620000Y-83260000D03*
X182160000Y-83260000D03*
%TD*%
D11*
%TO.C,R2*%
X55500000Y-86250000D03*
D12*
X55500000Y-96410000D03*
%TD*%
D11*
%TO.C,R4*%
X141500000Y-50250000D03*
D12*
X131340000Y-50250000D03*
%TD*%
D11*
%TO.C,R3*%
X131670000Y-132750000D03*
D12*
X141830000Y-132750000D03*
%TD*%
D18*
%TO.C,U5*%
X200750000Y-113160000D03*
X195670000Y-113160000D03*
%TD*%
D16*
%TO.C,J1*%
X177200000Y-113500000D03*
D17*
X174660000Y-113500000D03*
X172120000Y-113500000D03*
X169580000Y-113500000D03*
X167040000Y-113500000D03*
X164500000Y-113500000D03*
X161960000Y-113500000D03*
%TD*%
D11*
%TO.C,R1*%
X216750000Y-96500000D03*
D12*
X216750000Y-86340000D03*
%TD*%
D11*
%TO.C,R5*%
X202580000Y-98500000D03*
D12*
X192420000Y-98500000D03*
%TD*%
M02*
